<svg width="252" height="48" viewBox="0 0 252 48" fill="none" xmlns="http://www.w3.org/2000/svg">
<rect x="1" y="1" width="250" height="46" rx="3" fill="white"/>
<rect x="1" y="1" width="250" height="46" rx="3" stroke="url(#paint0_linear_29_7156)" stroke-width="2"/>
<path d="M27.2853 31.7602C27.2839 32.093 27.5533 32.3637 27.8862 32.3637C28.217 32.3637 28.4855 32.0963 28.487 31.7655L28.4908 30.9255C31.1946 30.7273 32.7415 29.1804 32.7415 27.1094C32.7415 24.7507 30.6385 23.8367 28.9765 23.4276L28.5099 23.3061L28.5227 19.2024C29.4709 19.3292 30.1818 19.7738 30.4959 20.4755C30.641 20.7999 30.9258 21.0753 31.2812 21.0753H31.5359C32.0985 21.0753 32.5658 20.6007 32.3856 20.0678C31.9021 18.6388 30.4705 17.6336 28.5291 17.4766L28.5329 16.6035C28.5343 16.2706 28.2649 16 27.9321 16C27.6012 16 27.3326 16.2675 27.3312 16.5983L27.3274 17.4894C25.0327 17.7195 23.3515 19.1513 23.3515 21.2159C23.3515 23.0377 24.6555 24.1051 26.7585 24.674L27.3082 24.8211L27.2954 29.174C26.2791 29.0489 25.4497 28.5754 25.1227 27.7359C24.9905 27.3966 24.7013 27.1094 24.3371 27.1094H24.0566C23.4827 27.1094 23.0117 27.5998 23.182 28.1478C23.6814 29.755 25.1439 30.7658 27.289 30.9255L27.2853 31.7602ZM28.4971 29.174L28.5099 25.1534C29.8075 25.5114 30.7855 25.9844 30.7855 27.0902C30.7855 28.2088 29.8523 28.9951 28.4971 29.174ZM27.3146 22.9865C26.3622 22.7053 25.3139 22.2003 25.3203 21.1009C25.3203 20.1421 26.081 19.3942 27.321 19.2088L27.3146 22.9865Z" fill="#6E7491"/>
<path d="M13.566 30V17.31H21.414V18.552H15.042V22.98H21.054V24.222H15.042V30H13.566ZM23.0493 19.074V17.436H24.8493V19.074H23.0493ZM23.2293 30V21.252H24.6873V30H23.2293ZM30.0949 30.162C29.2069 30.162 28.5349 29.904 28.0789 29.388C27.6349 28.86 27.4129 28.098 27.4129 27.102V17.31H28.8709V26.994C28.8709 28.278 29.3809 28.92 30.4009 28.92C30.7009 28.92 30.9709 28.884 31.2109 28.812L31.1749 30.036C30.8029 30.12 30.4429 30.162 30.0949 30.162ZM35.4211 30.162C34.5331 30.162 33.8611 29.904 33.4051 29.388C32.9611 28.86 32.7391 28.098 32.7391 27.102V17.31H34.1971V26.994C34.1971 28.278 34.7071 28.92 35.7271 28.92C36.0271 28.92 36.2971 28.884 36.5371 28.812L36.5011 30.036C36.1291 30.12 35.7691 30.162 35.4211 30.162ZM41.9194 30.162C40.5394 30.162 39.4474 29.76 38.6434 28.956C37.8394 28.14 37.4374 27.036 37.4374 25.644C37.4374 24.744 37.6174 23.952 37.9774 23.268C38.3374 22.572 38.8294 22.038 39.4534 21.666C40.0894 21.282 40.8214 21.09 41.6494 21.09C42.8374 21.09 43.7674 21.474 44.4394 22.242C45.1114 22.998 45.4474 24.042 45.4474 25.374V25.932H38.8594C38.9074 26.928 39.1954 27.69 39.7234 28.218C40.2514 28.734 40.9834 28.992 41.9194 28.992C42.4474 28.992 42.9514 28.914 43.4314 28.758C43.9114 28.59 44.3674 28.32 44.7994 27.948L45.3034 28.974C44.9074 29.346 44.4034 29.64 43.7914 29.856C43.1794 30.06 42.5554 30.162 41.9194 30.162ZM41.6854 22.17C40.8574 22.17 40.2034 22.428 39.7234 22.944C39.2434 23.46 38.9614 24.138 38.8774 24.978H44.1874C44.1514 24.09 43.9174 23.4 43.4854 22.908C43.0654 22.416 42.4654 22.17 41.6854 22.17ZM50.8875 30.162C50.1075 30.162 49.4235 29.976 48.8355 29.604C48.2595 29.232 47.8095 28.71 47.4855 28.038C47.1735 27.354 47.0175 26.55 47.0175 25.626C47.0175 24.69 47.1735 23.886 47.4855 23.214C47.8095 22.53 48.2595 22.008 48.8355 21.648C49.4235 21.276 50.1075 21.09 50.8875 21.09C51.5715 21.09 52.1715 21.24 52.6875 21.54C53.2155 21.84 53.6055 22.254 53.8575 22.782V17.31H55.3155V30H53.8935V28.398C53.6415 28.95 53.2515 29.382 52.7235 29.694C52.1955 30.006 51.5835 30.162 50.8875 30.162ZM51.1935 28.992C52.0095 28.992 52.6635 28.704 53.1555 28.128C53.6475 27.54 53.8935 26.706 53.8935 25.626C53.8935 24.534 53.6475 23.7 53.1555 23.124C52.6635 22.548 52.0095 22.26 51.1935 22.26C50.3655 22.26 49.7055 22.548 49.2135 23.124C48.7335 23.7 48.4935 24.534 48.4935 25.626C48.4935 26.706 48.7335 27.54 49.2135 28.128C49.7055 28.704 50.3655 28.992 51.1935 28.992Z" fill="#36374A"/>
<path fill-rule="evenodd" clip-rule="evenodd" d="M2004 1910C2000.6 1910 1997.61 1907.98 1996.18 1905C1997.61 1902.02 2000.6 1900 2004 1900C2007.4 1900 2010.39 1902.02 2011.82 1905C2010.39 1907.98 2007.4 1910 2004 1910ZM2004 1898C2008.55 1898 2012.44 1900.9 2014 1905C2012.44 1909.1 2008.55 1912 2004 1912C1999.45 1912 1995.56 1909.1 1994 1905C1995.56 1900.9 1999.45 1898 2004 1898ZM2004 1908C2005.66 1908 2007 1906.66 2007 1905C2007 1903.34 2005.66 1902 2004 1902C2002.34 1902 2001 1903.34 2001 1905C2001 1906.66 2002.34 1908 2004 1908Z" fill="#6E7491"/>
<defs>
<linearGradient id="paint0_linear_29_7156" x1="126" y1="0" x2="126" y2="48" gradientUnits="userSpaceOnUse">
<stop stop-color="#EB568C"/>
<stop offset="1" stop-color="#ED5E76"/>
</linearGradient>
</defs>
</svg>
