<svg width="252" height="48" viewBox="0 0 252 48" fill="none" xmlns="http://www.w3.org/2000/svg">
<rect x="1" y="1" width="250" height="46" rx="3" fill="white"/>
<rect x="1" y="1" width="250" height="46" rx="3" stroke="url(#paint0_linear_29_7072)" stroke-width="2"/>
<path d="M27.2853 31.7602C27.2839 32.093 27.5533 32.3637 27.8862 32.3637C28.217 32.3637 28.4855 32.0963 28.487 31.7655L28.4908 30.9255C31.1946 30.7273 32.7415 29.1804 32.7415 27.1094C32.7415 24.7507 30.6385 23.8367 28.9765 23.4276L28.5099 23.3061L28.5227 19.2024C29.4709 19.3292 30.1818 19.7738 30.4959 20.4755C30.641 20.7999 30.9258 21.0753 31.2812 21.0753H31.5359C32.0985 21.0753 32.5658 20.6007 32.3856 20.0678C31.9021 18.6388 30.4705 17.6336 28.5291 17.4766L28.5329 16.6035C28.5343 16.2706 28.2649 16 27.9321 16C27.6012 16 27.3326 16.2675 27.3312 16.5983L27.3274 17.4894C25.0327 17.7195 23.3515 19.1513 23.3515 21.2159C23.3515 23.0377 24.6555 24.1051 26.7585 24.674L27.3082 24.8211L27.2954 29.174C26.2791 29.0489 25.4497 28.5754 25.1227 27.7359C24.9905 27.3966 24.7013 27.1094 24.3371 27.1094H24.0566C23.4827 27.1094 23.0117 27.5998 23.182 28.1478C23.6814 29.755 25.1439 30.7658 27.289 30.9255L27.2853 31.7602ZM28.4971 29.174L28.5099 25.1534C29.8075 25.5114 30.7855 25.9844 30.7855 27.0902C30.7855 28.2088 29.8523 28.9951 28.4971 29.174ZM27.3146 22.9865C26.3622 22.7053 25.3139 22.2003 25.3203 21.1009C25.3203 20.1421 26.081 19.3942 27.321 19.2088L27.3146 22.9865Z" fill="#6E7491"/>
<path d="M53.566 30V17.31H58.588C59.956 17.31 61 17.64 61.72 18.3C62.452 18.96 62.818 19.902 62.818 21.126C62.818 22.338 62.452 23.28 61.72 23.952C61 24.612 59.956 24.942 58.588 24.942H55.042V30H53.566ZM55.042 23.7H58.408C60.376 23.7 61.36 22.842 61.36 21.126C61.36 19.398 60.376 18.534 58.408 18.534H55.042V23.7ZM67.4406 30.162C66.5526 30.162 65.8806 29.904 65.4246 29.388C64.9806 28.86 64.7586 28.098 64.7586 27.102V17.31H66.2166V26.994C66.2166 28.278 66.7266 28.92 67.7466 28.92C68.0466 28.92 68.3166 28.884 68.5566 28.812L68.5206 30.036C68.1486 30.12 67.7886 30.162 67.4406 30.162ZM72.8388 30.162C72.2388 30.162 71.6988 30.048 71.2188 29.82C70.7508 29.58 70.3788 29.256 70.1028 28.848C69.8268 28.44 69.6888 27.984 69.6888 27.48C69.6888 26.844 69.8508 26.34 70.1748 25.968C70.5108 25.596 71.0568 25.332 71.8128 25.176C72.5808 25.008 73.6248 24.924 74.9448 24.924H75.5208V24.366C75.5208 23.622 75.3648 23.088 75.0528 22.764C74.7528 22.428 74.2668 22.26 73.5948 22.26C73.0668 22.26 72.5568 22.338 72.0648 22.494C71.5728 22.638 71.0688 22.878 70.5528 23.214L70.0488 22.152C70.5048 21.828 71.0568 21.57 71.7048 21.378C72.3648 21.186 72.9948 21.09 73.5948 21.09C74.7228 21.09 75.5568 21.366 76.0968 21.918C76.6488 22.47 76.9248 23.328 76.9248 24.492V30H75.5568V28.488C75.3288 29.004 74.9748 29.412 74.4948 29.712C74.0268 30.012 73.4748 30.162 72.8388 30.162ZM73.0728 29.064C73.7928 29.064 74.3808 28.818 74.8368 28.326C75.2928 27.822 75.5208 27.186 75.5208 26.418V25.878H74.9628C73.9908 25.878 73.2228 25.926 72.6588 26.022C72.1068 26.106 71.7168 26.262 71.4888 26.49C71.2728 26.706 71.1648 27.006 71.1648 27.39C71.1648 27.882 71.3328 28.284 71.6688 28.596C72.0168 28.908 72.4848 29.064 73.0728 29.064ZM83.3377 30.162C82.4617 30.162 81.7057 29.976 81.0697 29.604C80.4337 29.22 79.9417 28.686 79.5937 28.002C79.2577 27.306 79.0897 26.496 79.0897 25.572C79.0897 24.18 79.4677 23.088 80.2237 22.296C80.9797 21.492 82.0177 21.09 83.3377 21.09C83.8777 21.09 84.4117 21.186 84.9397 21.378C85.4677 21.57 85.9057 21.84 86.2537 22.188L85.7497 23.25C85.4017 22.914 85.0177 22.668 84.5977 22.512C84.1897 22.356 83.7997 22.278 83.4277 22.278C82.5157 22.278 81.8137 22.566 81.3217 23.142C80.8297 23.706 80.5837 24.522 80.5837 25.59C80.5837 26.634 80.8297 27.462 81.3217 28.074C81.8137 28.674 82.5157 28.974 83.4277 28.974C83.7997 28.974 84.1897 28.896 84.5977 28.74C85.0177 28.584 85.4017 28.332 85.7497 27.984L86.2537 29.046C85.9057 29.394 85.4617 29.67 84.9217 29.874C84.3937 30.066 83.8657 30.162 83.3377 30.162ZM91.728 30.162C90.348 30.162 89.256 29.76 88.452 28.956C87.648 28.14 87.246 27.036 87.246 25.644C87.246 24.744 87.426 23.952 87.786 23.268C88.146 22.572 88.638 22.038 89.262 21.666C89.898 21.282 90.63 21.09 91.458 21.09C92.646 21.09 93.576 21.474 94.248 22.242C94.92 22.998 95.256 24.042 95.256 25.374V25.932H88.668C88.716 26.928 89.004 27.69 89.532 28.218C90.06 28.734 90.792 28.992 91.728 28.992C92.256 28.992 92.76 28.914 93.24 28.758C93.72 28.59 94.176 28.32 94.608 27.948L95.112 28.974C94.716 29.346 94.212 29.64 93.6 29.856C92.988 30.06 92.364 30.162 91.728 30.162ZM91.494 22.17C90.666 22.17 90.012 22.428 89.532 22.944C89.052 23.46 88.77 24.138 88.686 24.978H93.996C93.96 24.09 93.726 23.4 93.294 22.908C92.874 22.416 92.274 22.17 91.494 22.17ZM97.366 30V17.31H98.824V22.692C99.112 22.164 99.514 21.768 100.03 21.504C100.558 21.228 101.146 21.09 101.794 21.09C103.87 21.09 104.908 22.242 104.908 24.546V30H103.45V24.636C103.45 23.82 103.288 23.226 102.964 22.854C102.652 22.47 102.148 22.278 101.452 22.278C100.648 22.278 100.006 22.53 99.526 23.034C99.058 23.526 98.824 24.186 98.824 25.014V30H97.366ZM111.233 30.162C110.381 30.162 109.643 29.976 109.019 29.604C108.395 29.232 107.909 28.71 107.561 28.038C107.225 27.354 107.057 26.55 107.057 25.626C107.057 24.702 107.225 23.904 107.561 23.232C107.909 22.548 108.395 22.02 109.019 21.648C109.643 21.276 110.381 21.09 111.233 21.09C112.073 21.09 112.805 21.276 113.429 21.648C114.065 22.02 114.551 22.548 114.887 23.232C115.235 23.904 115.409 24.702 115.409 25.626C115.409 26.55 115.235 27.354 114.887 28.038C114.551 28.71 114.065 29.232 113.429 29.604C112.805 29.976 112.073 30.162 111.233 30.162ZM111.233 28.992C112.049 28.992 112.703 28.704 113.195 28.128C113.687 27.54 113.933 26.706 113.933 25.626C113.933 24.534 113.687 23.7 113.195 23.124C112.703 22.548 112.049 22.26 111.233 22.26C110.405 22.26 109.745 22.548 109.253 23.124C108.773 23.7 108.533 24.534 108.533 25.626C108.533 26.706 108.773 27.54 109.253 28.128C109.745 28.704 110.405 28.992 111.233 28.992ZM120.28 30.162C119.392 30.162 118.72 29.904 118.264 29.388C117.82 28.86 117.598 28.098 117.598 27.102V17.31H119.056V26.994C119.056 28.278 119.566 28.92 120.586 28.92C120.886 28.92 121.156 28.884 121.396 28.812L121.36 30.036C120.988 30.12 120.628 30.162 120.28 30.162ZM126.167 30.162C125.387 30.162 124.703 29.976 124.115 29.604C123.539 29.232 123.089 28.71 122.765 28.038C122.453 27.354 122.297 26.55 122.297 25.626C122.297 24.69 122.453 23.886 122.765 23.214C123.089 22.53 123.539 22.008 124.115 21.648C124.703 21.276 125.387 21.09 126.167 21.09C126.851 21.09 127.451 21.24 127.967 21.54C128.495 21.84 128.885 22.254 129.137 22.782V17.31H130.595V30H129.173V28.398C128.921 28.95 128.531 29.382 128.003 29.694C127.475 30.006 126.863 30.162 126.167 30.162ZM126.473 28.992C127.289 28.992 127.943 28.704 128.435 28.128C128.927 27.54 129.173 26.706 129.173 25.626C129.173 24.534 128.927 23.7 128.435 23.124C127.943 22.548 127.289 22.26 126.473 22.26C125.645 22.26 124.985 22.548 124.493 23.124C124.013 23.7 123.773 24.534 123.773 25.626C123.773 26.706 124.013 27.54 124.493 28.128C124.985 28.704 125.645 28.992 126.473 28.992ZM137.273 30.162C135.893 30.162 134.801 29.76 133.997 28.956C133.193 28.14 132.791 27.036 132.791 25.644C132.791 24.744 132.971 23.952 133.331 23.268C133.691 22.572 134.183 22.038 134.807 21.666C135.443 21.282 136.175 21.09 137.003 21.09C138.191 21.09 139.121 21.474 139.793 22.242C140.465 22.998 140.801 24.042 140.801 25.374V25.932H134.213C134.261 26.928 134.549 27.69 135.077 28.218C135.605 28.734 136.337 28.992 137.273 28.992C137.801 28.992 138.305 28.914 138.785 28.758C139.265 28.59 139.721 28.32 140.153 27.948L140.657 28.974C140.261 29.346 139.757 29.64 139.145 29.856C138.533 30.06 137.909 30.162 137.273 30.162ZM137.039 22.17C136.211 22.17 135.557 22.428 135.077 22.944C134.597 23.46 134.315 24.138 134.231 24.978H139.541C139.505 24.09 139.271 23.4 138.839 22.908C138.419 22.416 137.819 22.17 137.039 22.17ZM142.911 30V21.252H144.333V22.818C144.801 21.762 145.761 21.18 147.213 21.072L147.735 21.018L147.843 22.278L146.925 22.386C146.097 22.458 145.467 22.722 145.035 23.178C144.603 23.622 144.387 24.234 144.387 25.014V30H142.911Z" fill="#7C8DB0"/>
<path fill-rule="evenodd" clip-rule="evenodd" d="M2004 1910C2000.6 1910 1997.61 1907.98 1996.18 1905C1997.61 1902.02 2000.6 1900 2004 1900C2007.4 1900 2010.39 1902.02 2011.82 1905C2010.39 1907.98 2007.4 1910 2004 1910ZM2004 1898C2008.55 1898 2012.44 1900.9 2014 1905C2012.44 1909.1 2008.55 1912 2004 1912C1999.45 1912 1995.56 1909.1 1994 1905C1995.56 1900.9 1999.45 1898 2004 1898ZM2004 1908C2005.66 1908 2007 1906.66 2007 1905C2007 1903.34 2005.66 1902 2004 1902C2002.34 1902 2001 1903.34 2001 1905C2001 1906.66 2002.34 1908 2004 1908Z" fill="#6E7491"/>
<defs>
<linearGradient id="paint0_linear_29_7072" x1="126" y1="0" x2="126" y2="48" gradientUnits="userSpaceOnUse">
<stop stop-color="#EB568C"/>
<stop offset="1" stop-color="#ED5E76"/>
</linearGradient>
</defs>
</svg>
