<svg width="252" height="48" viewBox="0 0 252 48" fill="none" xmlns="http://www.w3.org/2000/svg">
<rect x="1" y="1" width="250" height="46" rx="3" fill="white"/>
<rect x="1" y="1" width="250" height="46" rx="3" stroke="url(#paint0_linear_29_7088)" stroke-width="2"/>
<path d="M27.2853 31.7602C27.2839 32.093 27.5533 32.3637 27.8862 32.3637C28.217 32.3637 28.4855 32.0963 28.487 31.7655L28.4908 30.9255C31.1946 30.7273 32.7415 29.1804 32.7415 27.1094C32.7415 24.7507 30.6385 23.8367 28.9765 23.4276L28.5099 23.3061L28.5227 19.2024C29.4709 19.3292 30.1818 19.7738 30.4959 20.4755C30.641 20.7999 30.9258 21.0753 31.2812 21.0753H31.5359C32.0985 21.0753 32.5658 20.6007 32.3856 20.0678C31.9021 18.6388 30.4705 17.6336 28.5291 17.4766L28.5329 16.6035C28.5343 16.2706 28.2649 16 27.9321 16C27.6012 16 27.3326 16.2675 27.3312 16.5983L27.3274 17.4894C25.0327 17.7195 23.3515 19.1513 23.3515 21.2159C23.3515 23.0377 24.6555 24.1051 26.7585 24.674L27.3082 24.8211L27.2954 29.174C26.2791 29.0489 25.4497 28.5754 25.1227 27.7359C24.9905 27.3966 24.7013 27.1094 24.3371 27.1094H24.0566C23.4827 27.1094 23.0117 27.5998 23.182 28.1478C23.6814 29.755 25.1439 30.7658 27.289 30.9255L27.2853 31.7602ZM28.4971 29.174L28.5099 25.1534C29.8075 25.5114 30.7855 25.9844 30.7855 27.0902C30.7855 28.2088 29.8523 28.9951 28.4971 29.174ZM27.3146 22.9865C26.3622 22.7053 25.3139 22.2003 25.3203 21.1009C25.3203 20.1421 26.081 19.3942 27.321 19.2088L27.3146 22.9865Z" fill="#6E7491"/>
<path d="M13.566 30V17.31H18.588C19.956 17.31 21 17.64 21.72 18.3C22.452 18.96 22.818 19.902 22.818 21.126C22.818 22.338 22.452 23.28 21.72 23.952C21 24.612 19.956 24.942 18.588 24.942H15.042V30H13.566ZM15.042 23.7H18.408C20.376 23.7 21.36 22.842 21.36 21.126C21.36 19.398 20.376 18.534 18.408 18.534H15.042V23.7ZM27.4406 30.162C26.5526 30.162 25.8806 29.904 25.4246 29.388C24.9806 28.86 24.7586 28.098 24.7586 27.102V17.31H26.2166V26.994C26.2166 28.278 26.7266 28.92 27.7466 28.92C28.0466 28.92 28.3166 28.884 28.5566 28.812L28.5206 30.036C28.1486 30.12 27.7886 30.162 27.4406 30.162ZM32.8388 30.162C32.2388 30.162 31.6988 30.048 31.2188 29.82C30.7508 29.58 30.3788 29.256 30.1028 28.848C29.8268 28.44 29.6888 27.984 29.6888 27.48C29.6888 26.844 29.8508 26.34 30.1748 25.968C30.5108 25.596 31.0568 25.332 31.8128 25.176C32.5808 25.008 33.6248 24.924 34.9448 24.924H35.5208V24.366C35.5208 23.622 35.3648 23.088 35.0528 22.764C34.7528 22.428 34.2668 22.26 33.5948 22.26C33.0668 22.26 32.5568 22.338 32.0648 22.494C31.5728 22.638 31.0688 22.878 30.5528 23.214L30.0488 22.152C30.5048 21.828 31.0568 21.57 31.7048 21.378C32.3648 21.186 32.9948 21.09 33.5948 21.09C34.7228 21.09 35.5568 21.366 36.0968 21.918C36.6488 22.47 36.9248 23.328 36.9248 24.492V30H35.5568V28.488C35.3288 29.004 34.9748 29.412 34.4948 29.712C34.0268 30.012 33.4748 30.162 32.8388 30.162ZM33.0728 29.064C33.7928 29.064 34.3808 28.818 34.8368 28.326C35.2928 27.822 35.5208 27.186 35.5208 26.418V25.878H34.9628C33.9908 25.878 33.2228 25.926 32.6588 26.022C32.1068 26.106 31.7168 26.262 31.4888 26.49C31.2728 26.706 31.1648 27.006 31.1648 27.39C31.1648 27.882 31.3328 28.284 31.6688 28.596C32.0168 28.908 32.4848 29.064 33.0728 29.064ZM43.3377 30.162C42.4617 30.162 41.7057 29.976 41.0697 29.604C40.4337 29.22 39.9417 28.686 39.5937 28.002C39.2577 27.306 39.0897 26.496 39.0897 25.572C39.0897 24.18 39.4677 23.088 40.2237 22.296C40.9797 21.492 42.0177 21.09 43.3377 21.09C43.8777 21.09 44.4117 21.186 44.9397 21.378C45.4677 21.57 45.9057 21.84 46.2537 22.188L45.7497 23.25C45.4017 22.914 45.0177 22.668 44.5977 22.512C44.1897 22.356 43.7997 22.278 43.4277 22.278C42.5157 22.278 41.8137 22.566 41.3217 23.142C40.8297 23.706 40.5837 24.522 40.5837 25.59C40.5837 26.634 40.8297 27.462 41.3217 28.074C41.8137 28.674 42.5157 28.974 43.4277 28.974C43.7997 28.974 44.1897 28.896 44.5977 28.74C45.0177 28.584 45.4017 28.332 45.7497 27.984L46.2537 29.046C45.9057 29.394 45.4617 29.67 44.9217 29.874C44.3937 30.066 43.8657 30.162 43.3377 30.162ZM51.728 30.162C50.348 30.162 49.256 29.76 48.452 28.956C47.648 28.14 47.246 27.036 47.246 25.644C47.246 24.744 47.426 23.952 47.786 23.268C48.146 22.572 48.638 22.038 49.262 21.666C49.898 21.282 50.63 21.09 51.458 21.09C52.646 21.09 53.576 21.474 54.248 22.242C54.92 22.998 55.256 24.042 55.256 25.374V25.932H48.668C48.716 26.928 49.004 27.69 49.532 28.218C50.06 28.734 50.792 28.992 51.728 28.992C52.256 28.992 52.76 28.914 53.24 28.758C53.72 28.59 54.176 28.32 54.608 27.948L55.112 28.974C54.716 29.346 54.212 29.64 53.6 29.856C52.988 30.06 52.364 30.162 51.728 30.162ZM51.494 22.17C50.666 22.17 50.012 22.428 49.532 22.944C49.052 23.46 48.77 24.138 48.686 24.978H53.996C53.96 24.09 53.726 23.4 53.294 22.908C52.874 22.416 52.274 22.17 51.494 22.17ZM57.366 30V17.31H58.824V22.692C59.112 22.164 59.514 21.768 60.03 21.504C60.558 21.228 61.146 21.09 61.794 21.09C63.87 21.09 64.908 22.242 64.908 24.546V30H63.45V24.636C63.45 23.82 63.288 23.226 62.964 22.854C62.652 22.47 62.148 22.278 61.452 22.278C60.648 22.278 60.006 22.53 59.526 23.034C59.058 23.526 58.824 24.186 58.824 25.014V30H57.366ZM71.2325 30.162C70.3805 30.162 69.6425 29.976 69.0185 29.604C68.3945 29.232 67.9085 28.71 67.5605 28.038C67.2245 27.354 67.0565 26.55 67.0565 25.626C67.0565 24.702 67.2245 23.904 67.5605 23.232C67.9085 22.548 68.3945 22.02 69.0185 21.648C69.6425 21.276 70.3805 21.09 71.2325 21.09C72.0725 21.09 72.8045 21.276 73.4285 21.648C74.0645 22.02 74.5505 22.548 74.8865 23.232C75.2345 23.904 75.4085 24.702 75.4085 25.626C75.4085 26.55 75.2345 27.354 74.8865 28.038C74.5505 28.71 74.0645 29.232 73.4285 29.604C72.8045 29.976 72.0725 30.162 71.2325 30.162ZM71.2325 28.992C72.0485 28.992 72.7025 28.704 73.1945 28.128C73.6865 27.54 73.9325 26.706 73.9325 25.626C73.9325 24.534 73.6865 23.7 73.1945 23.124C72.7025 22.548 72.0485 22.26 71.2325 22.26C70.4045 22.26 69.7445 22.548 69.2525 23.124C68.7725 23.7 68.5325 24.534 68.5325 25.626C68.5325 26.706 68.7725 27.54 69.2525 28.128C69.7445 28.704 70.4045 28.992 71.2325 28.992ZM80.2805 30.162C79.3925 30.162 78.7205 29.904 78.2645 29.388C77.8205 28.86 77.5985 28.098 77.5985 27.102V17.31H79.0565V26.994C79.0565 28.278 79.5665 28.92 80.5865 28.92C80.8865 28.92 81.1565 28.884 81.3965 28.812L81.3605 30.036C80.9885 30.12 80.6285 30.162 80.2805 30.162ZM86.1668 30.162C85.3868 30.162 84.7028 29.976 84.1147 29.604C83.5388 29.232 83.0888 28.71 82.7648 28.038C82.4528 27.354 82.2968 26.55 82.2968 25.626C82.2968 24.69 82.4528 23.886 82.7648 23.214C83.0888 22.53 83.5388 22.008 84.1147 21.648C84.7028 21.276 85.3868 21.09 86.1668 21.09C86.8508 21.09 87.4508 21.24 87.9668 21.54C88.4948 21.84 88.8848 22.254 89.1368 22.782V17.31H90.5948V30H89.1728V28.398C88.9208 28.95 88.5308 29.382 88.0028 29.694C87.4748 30.006 86.8628 30.162 86.1668 30.162ZM86.4728 28.992C87.2888 28.992 87.9428 28.704 88.4348 28.128C88.9268 27.54 89.1728 26.706 89.1728 25.626C89.1728 24.534 88.9268 23.7 88.4348 23.124C87.9428 22.548 87.2888 22.26 86.4728 22.26C85.6448 22.26 84.9848 22.548 84.4928 23.124C84.0128 23.7 83.7728 24.534 83.7728 25.626C83.7728 26.706 84.0128 27.54 84.4928 28.128C84.9848 28.704 85.6448 28.992 86.4728 28.992ZM97.2729 30.162C95.8929 30.162 94.8009 29.76 93.9969 28.956C93.1929 28.14 92.7909 27.036 92.7909 25.644C92.7909 24.744 92.9709 23.952 93.3309 23.268C93.6909 22.572 94.1829 22.038 94.8069 21.666C95.4429 21.282 96.1749 21.09 97.0029 21.09C98.1909 21.09 99.1209 21.474 99.7929 22.242C100.465 22.998 100.801 24.042 100.801 25.374V25.932H94.2129C94.2609 26.928 94.5489 27.69 95.0769 28.218C95.6049 28.734 96.3369 28.992 97.2729 28.992C97.8009 28.992 98.3049 28.914 98.7849 28.758C99.2649 28.59 99.7209 28.32 100.153 27.948L100.657 28.974C100.261 29.346 99.7569 29.64 99.1449 29.856C98.5329 30.06 97.9089 30.162 97.2729 30.162ZM97.0389 22.17C96.2109 22.17 95.5569 22.428 95.0769 22.944C94.5969 23.46 94.3149 24.138 94.2309 24.978H99.5409C99.5049 24.09 99.2709 23.4 98.8389 22.908C98.4189 22.416 97.8189 22.17 97.0389 22.17ZM102.911 30V21.252H104.333V22.818C104.801 21.762 105.761 21.18 107.213 21.072L107.735 21.018L107.843 22.278L106.925 22.386C106.097 22.458 105.467 22.722 105.035 23.178C104.603 23.622 104.387 24.234 104.387 25.014V30H102.911Z" fill="#7C8DB0"/>
<path fill-rule="evenodd" clip-rule="evenodd" d="M224 29C220.595 29 217.614 26.984 216.176 24C217.614 21.016 220.595 19 224 19C227.405 19 230.386 21.016 231.825 24C230.386 26.984 227.405 29 224 29ZM224 17C228.55 17 232.439 19.9026 234 24C232.439 28.0974 228.55 31 224 31C219.45 31 215.561 28.0974 214 24C215.561 19.9026 219.45 17 224 17ZM224 27C225.657 27 227 25.6569 227 24C227 22.3431 225.657 21 224 21C222.343 21 221 22.3431 221 24C221 25.6569 222.343 27 224 27Z" fill="#6E7491"/>
<defs>
<linearGradient id="paint0_linear_29_7088" x1="126" y1="0" x2="126" y2="48" gradientUnits="userSpaceOnUse">
<stop stop-color="#EB568C"/>
<stop offset="1" stop-color="#ED5E76"/>
</linearGradient>
</defs>
</svg>
