<svg width="252" height="48" viewBox="0 0 252 48" fill="none" xmlns="http://www.w3.org/2000/svg">
<rect x="1" y="1" width="250" height="46" rx="3" fill="white"/>
<rect x="1" y="1" width="250" height="46" rx="3" stroke="url(#paint0_linear_29_7152)" stroke-width="2"/>
<path d="M27.2853 31.7602C27.2839 32.093 27.5533 32.3637 27.8862 32.3637C28.217 32.3637 28.4855 32.0963 28.487 31.7655L28.4908 30.9255C31.1946 30.7273 32.7415 29.1804 32.7415 27.1094C32.7415 24.7507 30.6385 23.8367 28.9765 23.4276L28.5099 23.3061L28.5227 19.2024C29.4709 19.3292 30.1818 19.7738 30.4959 20.4755C30.641 20.7999 30.9258 21.0753 31.2812 21.0753H31.5359C32.0985 21.0753 32.5658 20.6007 32.3856 20.0678C31.9021 18.6388 30.4705 17.6336 28.5291 17.4766L28.5329 16.6035C28.5343 16.2706 28.2649 16 27.9321 16C27.6012 16 27.3326 16.2675 27.3312 16.5983L27.3274 17.4894C25.0327 17.7195 23.3515 19.1513 23.3515 21.2159C23.3515 23.0377 24.6555 24.1051 26.7585 24.674L27.3082 24.8211L27.2954 29.174C26.2791 29.0489 25.4497 28.5754 25.1227 27.7359C24.9905 27.3966 24.7013 27.1094 24.3371 27.1094H24.0566C23.4827 27.1094 23.0117 27.5998 23.182 28.1478C23.6814 29.755 25.1439 30.7658 27.289 30.9255L27.2853 31.7602ZM28.4971 29.174L28.5099 25.1534C29.8075 25.5114 30.7855 25.9844 30.7855 27.0902C30.7855 28.2088 29.8523 28.9951 28.4971 29.174ZM27.3146 22.9865C26.3622 22.7053 25.3139 22.2003 25.3203 21.1009C25.3203 20.1421 26.081 19.3942 27.321 19.2088L27.3146 22.9865Z" fill="#6E7491"/>
<path d="M53.566 30V17.31H61.414V18.552H55.042V22.98H61.054V24.222H55.042V30H53.566ZM63.0493 19.074V17.436H64.8493V19.074H63.0493ZM63.2293 30V21.252H64.6873V30H63.2293ZM70.0949 30.162C69.2069 30.162 68.5349 29.904 68.0789 29.388C67.6349 28.86 67.4129 28.098 67.4129 27.102V17.31H68.8709V26.994C68.8709 28.278 69.3809 28.92 70.4009 28.92C70.7009 28.92 70.9709 28.884 71.2109 28.812L71.1749 30.036C70.8029 30.12 70.4429 30.162 70.0949 30.162ZM75.4211 30.162C74.5331 30.162 73.8611 29.904 73.4051 29.388C72.9611 28.86 72.7391 28.098 72.7391 27.102V17.31H74.1971V26.994C74.1971 28.278 74.7071 28.92 75.7271 28.92C76.0271 28.92 76.2971 28.884 76.5371 28.812L76.5011 30.036C76.1291 30.12 75.7691 30.162 75.4211 30.162ZM81.9194 30.162C80.5394 30.162 79.4474 29.76 78.6434 28.956C77.8394 28.14 77.4374 27.036 77.4374 25.644C77.4374 24.744 77.6174 23.952 77.9774 23.268C78.3374 22.572 78.8294 22.038 79.4534 21.666C80.0894 21.282 80.8214 21.09 81.6494 21.09C82.8374 21.09 83.7674 21.474 84.4394 22.242C85.1114 22.998 85.4474 24.042 85.4474 25.374V25.932H78.8594C78.9074 26.928 79.1954 27.69 79.7234 28.218C80.2514 28.734 80.9834 28.992 81.9194 28.992C82.4474 28.992 82.9514 28.914 83.4314 28.758C83.9114 28.59 84.3674 28.32 84.7994 27.948L85.3034 28.974C84.9074 29.346 84.4034 29.64 83.7914 29.856C83.1794 30.06 82.5554 30.162 81.9194 30.162ZM81.6854 22.17C80.8574 22.17 80.2034 22.428 79.7234 22.944C79.2434 23.46 78.9614 24.138 78.8774 24.978H84.1874C84.1514 24.09 83.9174 23.4 83.4854 22.908C83.0654 22.416 82.4654 22.17 81.6854 22.17ZM90.8875 30.162C90.1075 30.162 89.4235 29.976 88.8355 29.604C88.2595 29.232 87.8095 28.71 87.4855 28.038C87.1735 27.354 87.0175 26.55 87.0175 25.626C87.0175 24.69 87.1735 23.886 87.4855 23.214C87.8095 22.53 88.2595 22.008 88.8355 21.648C89.4235 21.276 90.1075 21.09 90.8875 21.09C91.5715 21.09 92.1715 21.24 92.6875 21.54C93.2155 21.84 93.6055 22.254 93.8575 22.782V17.31H95.3155V30H93.8935V28.398C93.6415 28.95 93.2515 29.382 92.7235 29.694C92.1955 30.006 91.5835 30.162 90.8875 30.162ZM91.1935 28.992C92.0095 28.992 92.6635 28.704 93.1555 28.128C93.6475 27.54 93.8935 26.706 93.8935 25.626C93.8935 24.534 93.6475 23.7 93.1555 23.124C92.6635 22.548 92.0095 22.26 91.1935 22.26C90.3655 22.26 89.7055 22.548 89.2135 23.124C88.7335 23.7 88.4935 24.534 88.4935 25.626C88.4935 26.706 88.7335 27.54 89.2135 28.128C89.7055 28.704 90.3655 28.992 91.1935 28.992Z" fill="#36374A"/>
<path fill-rule="evenodd" clip-rule="evenodd" d="M2004 1910C2000.6 1910 1997.61 1907.98 1996.18 1905C1997.61 1902.02 2000.6 1900 2004 1900C2007.4 1900 2010.39 1902.02 2011.82 1905C2010.39 1907.98 2007.4 1910 2004 1910ZM2004 1898C2008.55 1898 2012.44 1900.9 2014 1905C2012.44 1909.1 2008.55 1912 2004 1912C1999.45 1912 1995.56 1909.1 1994 1905C1995.56 1900.9 1999.45 1898 2004 1898ZM2004 1908C2005.66 1908 2007 1906.66 2007 1905C2007 1903.34 2005.66 1902 2004 1902C2002.34 1902 2001 1903.34 2001 1905C2001 1906.66 2002.34 1908 2004 1908Z" fill="#6E7491"/>
<defs>
<linearGradient id="paint0_linear_29_7152" x1="126" y1="0" x2="126" y2="48" gradientUnits="userSpaceOnUse">
<stop stop-color="#EB568C"/>
<stop offset="1" stop-color="#ED5E76"/>
</linearGradient>
</defs>
</svg>
