<svg width="20" height="14" viewBox="0 0 20 14" fill="none" xmlns="http://www.w3.org/2000/svg">
<path fill-rule="evenodd" clip-rule="evenodd" d="M10 12C6.59528 12 3.61369 9.98402 2.1755 7C3.61369 4.01598 6.59528 2 10 2C13.4047 2 16.3863 4.01598 17.8245 7C16.3863 9.98402 13.4047 12 10 12ZM10 0C14.5502 0 18.4389 2.90265 20 7C18.4389 11.0974 14.5502 14 10 14C5.44984 14 1.56109 11.0974 0 7C1.56109 2.90264 5.44984 0 10 0ZM10 10C11.6569 10 13 8.65685 13 7C13 5.34315 11.6569 4 10 4C8.34315 4 7 5.34315 7 7C7 8.65685 8.34315 10 10 10Z" fill="#6E7491"/>
</svg>
