<svg width="83" height="42" viewBox="0 0 83 42" fill="none" xmlns="http://www.w3.org/2000/svg">
<path d="M83 0.5C83 5.94986 81.9266 11.3464 79.841 16.3814C77.7554 21.4164 74.6986 25.9913 70.8449 29.8449C66.9913 33.6986 62.4164 36.7554 57.3814 38.841C52.3463 40.9266 46.9499 42 41.5 42C36.0501 42 30.6536 40.9266 25.6186 38.841C20.5836 36.7554 16.0087 33.6986 12.1551 29.8449C8.30144 25.9913 5.24457 21.4164 3.159 16.3814C1.07343 11.3463 -4.76442e-07 5.94985 0 0.499996L4.73981 0.499997C4.73981 5.32741 5.69064 10.1076 7.53801 14.5675C9.38538 19.0275 12.0931 23.0799 15.5066 26.4934C18.9201 29.9069 22.9725 32.6146 27.4325 34.462C31.8924 36.3094 36.6726 37.2602 41.5 37.2602C46.3274 37.2602 51.1076 36.3094 55.5675 34.462C60.0275 32.6146 64.0799 29.9069 67.4934 26.4934C70.9069 23.0799 73.6146 19.0275 75.462 14.5675C77.3094 10.1076 78.2602 5.32742 78.2602 0.5H83Z" fill="#0891FE"/>
</svg>
