<svg width="83" height="81" viewBox="0 0 83 81" fill="none" xmlns="http://www.w3.org/2000/svg">
<path d="M83 41.5C83 33.931 80.93 26.5061 77.014 20.0289C73.098 13.5517 67.4851 8.26877 60.7828 4.75187C54.0805 1.23498 46.5439 -0.381957 38.9888 0.0760463C31.4337 0.53405 24.1477 3.04955 17.9193 7.35033C11.6909 11.6511 6.75729 17.5734 3.6524 24.4762C0.547513 31.3791 -0.610423 38.9996 0.303906 46.5132C1.21824 54.0267 4.17001 61.1472 8.83979 67.1039C13.5096 73.0607 19.7195 77.6269 26.7976 80.3084L28.5906 75.5756C22.3757 73.2211 16.9231 69.2117 12.8228 63.9814C8.72251 58.7511 6.13071 52.4991 5.32789 45.9018C4.52507 39.3045 5.54179 32.6133 8.26803 26.5523C10.9943 20.4913 15.3262 15.2913 20.795 11.515C26.2639 7.7387 32.6613 5.52997 39.2951 5.12782C45.9288 4.72567 52.5462 6.14542 58.4312 9.23342C64.3161 12.3214 69.2445 16.9601 72.6829 22.6474C76.1214 28.3347 77.939 34.8541 77.939 41.5H83Z" fill="#FFAF2B"/>
</svg>
