<svg width="30" height="30" viewBox="0 0 30 30" fill="none" xmlns="http://www.w3.org/2000/svg">
<g clip-path="url(#clip0_40_10176)">
<path d="M15.2086 27.7413C11.8488 27.7413 8.62651 26.4066 6.25073 24.0308C3.87494 21.655 2.54024 18.4328 2.54024 15.0729C2.54024 11.713 3.87494 8.49077 6.25073 6.11498C8.62651 3.7392 11.8488 2.4045 15.2086 2.4045C18.5685 2.4045 21.7908 3.7392 24.1665 6.11498C26.5423 8.49077 27.877 11.713 27.877 15.0729C27.877 18.4328 26.5423 21.655 24.1665 24.0308C21.7908 26.4066 18.5685 27.7413 15.2086 27.7413ZM15.2086 29.5511C19.0485 29.5511 22.7311 28.0257 25.4462 25.3105C28.1614 22.5953 29.6868 18.9127 29.6868 15.0729C29.6868 11.233 28.1614 7.55046 25.4462 4.83528C22.7311 2.1201 19.0485 0.594727 15.2086 0.594727C11.3688 0.594727 7.68621 2.1201 4.97102 4.83528C2.25584 7.55046 0.730469 11.233 0.730469 15.0729C0.730469 18.9127 2.25584 22.5953 4.97102 25.3105C7.68621 28.0257 11.3688 29.5511 15.2086 29.5511Z" fill="black"/>
<path d="M16.8918 12.5173L12.7474 13.0367L12.599 13.7244L13.4134 13.8746C13.9455 14.0013 14.0505 14.1931 13.9346 14.7234L12.599 20.9997C12.2479 22.623 12.789 23.3868 14.0613 23.3868C15.0476 23.3868 16.1932 22.9307 16.7126 22.3045L16.8719 21.5517C16.5099 21.8702 15.9815 21.9969 15.6304 21.9969C15.1327 21.9969 14.9517 21.6476 15.0802 21.0323L16.8918 12.5173ZM17.0185 8.73848C17.0185 9.21846 16.8278 9.67878 16.4884 10.0182C16.149 10.3576 15.6887 10.5483 15.2087 10.5483C14.7287 10.5483 14.2684 10.3576 13.929 10.0182C13.5896 9.67878 13.3989 9.21846 13.3989 8.73848C13.3989 8.2585 13.5896 7.79818 13.929 7.45878C14.2684 7.11938 14.7287 6.92871 15.2087 6.92871C15.6887 6.92871 16.149 7.11938 16.4884 7.45878C16.8278 7.79818 17.0185 8.2585 17.0185 8.73848Z" fill="black"/>
</g>
<defs>
<clipPath id="clip0_40_10176">
<rect width="28.9563" height="28.9563" fill="white" transform="translate(0.730469 0.594727)"/>
</clipPath>
</defs>
</svg>
