<svg width="24" height="23" viewBox="0 0 24 23" fill="none" xmlns="http://www.w3.org/2000/svg">
<path fill-rule="evenodd" clip-rule="evenodd" d="M23.8532 11.5C23.8532 17.8512 18.7248 23 12.3988 23C6.07275 23 0.944458 17.8512 0.944458 11.5C0.944458 5.14872 6.07275 0 12.3988 0C18.7248 0 23.8532 5.14872 23.8532 11.5ZM15.8351 8.05C15.8351 9.95543 14.2967 11.5 12.3988 11.5C10.5009 11.5 8.96251 9.95543 8.96251 8.05C8.96251 6.14462 10.5009 4.6 12.3988 4.6C14.2967 4.6 15.8351 6.14462 15.8351 8.05ZM12.3988 21.275C14.4423 21.275 16.3388 20.643 17.9048 19.5629C18.5966 19.0859 18.8921 18.1771 18.49 17.4377C17.6564 15.9048 15.9385 14.95 12.3987 14.95C8.85907 14.95 7.14123 15.9047 6.30755 17.4377C5.9054 18.1771 6.20098 19.0857 6.89266 19.5628C8.45873 20.6428 10.3553 21.275 12.3988 21.275Z" fill="#F87C56"/>
</svg>
