<svg width="19" height="23" viewBox="0 0 19 23" fill="none" xmlns="http://www.w3.org/2000/svg">
<path d="M9.5 0C4.73684 0 0.875 3.86184 0.875 8.625C0.875 10.5006 1.48989 12.2216 2.51195 13.6311C2.53028 13.6649 2.53316 13.7026 2.554 13.735L8.304 22.36C8.57066 22.7599 9.01987 23 9.5 23C9.98013 23 10.4293 22.7599 10.696 22.36L16.446 13.735C16.4672 13.7026 16.4697 13.6649 16.488 13.6311C17.5101 12.2216 18.125 10.5006 18.125 8.625C18.125 3.86184 14.2632 0 9.5 0ZM9.5 11.5C7.91228 11.5 6.625 10.2127 6.625 8.625C6.625 7.03728 7.91228 5.75 9.5 5.75C11.0877 5.75 12.375 7.03728 12.375 8.625C12.375 10.2127 11.0877 11.5 9.5 11.5Z" fill="#F87C56"/>
</svg>
