<svg width="18" height="18" viewBox="0 0 18 18" fill="none" xmlns="http://www.w3.org/2000/svg">
<path fill-rule="evenodd" clip-rule="evenodd" d="M5.17332 15.9829C5.12148 15.9312 5.08034 15.8698 5.05228 15.8021C5.02421 15.7345 5.00977 15.662 5.00977 15.5888C5.00977 15.5155 5.02421 15.443 5.05228 15.3754C5.08034 15.3077 5.12148 15.2463 5.17332 15.1946L11.461 8.90803L5.17332 2.62147C5.12156 2.56971 5.0805 2.50826 5.05249 2.44063C5.02447 2.373 5.01006 2.30051 5.01006 2.22731C5.01006 2.1541 5.02447 2.08162 5.05249 2.01399C5.0805 1.94636 5.12156 1.88491 5.17332 1.83314C5.22509 1.78138 5.28654 1.74032 5.35417 1.71231C5.4218 1.68429 5.49428 1.66988 5.56749 1.66988C5.64069 1.66988 5.71318 1.68429 5.78081 1.71231C5.84844 1.74032 5.90989 1.78138 5.96165 1.83314L12.6424 8.51387C12.6942 8.56559 12.7354 8.62702 12.7634 8.69466C12.7915 8.7623 12.8059 8.83481 12.8059 8.90803C12.8059 8.98126 12.7915 9.05377 12.7634 9.12141C12.7354 9.18905 12.6942 9.25048 12.6424 9.3022L5.96165 15.9829C5.90994 16.0348 5.8485 16.0759 5.78086 16.104C5.71323 16.132 5.64072 16.1465 5.56749 16.1465C5.49426 16.1465 5.42175 16.132 5.35411 16.104C5.28648 16.0759 5.22504 16.0348 5.17332 15.9829Z" fill="black"/>
</svg>
