<svg width="30" height="30" viewBox="0 0 30 30" fill="none" xmlns="http://www.w3.org/2000/svg">
<g clip-path="url(#clip0_31_2552)">
<path d="M15.2086 27.7403C11.8488 27.7403 8.62651 26.4056 6.25073 24.0298C3.87494 21.654 2.54024 18.4318 2.54024 15.0719C2.54024 11.712 3.87494 8.48979 6.25073 6.11401C8.62651 3.73822 11.8488 2.40352 15.2086 2.40352C18.5685 2.40352 21.7908 3.73822 24.1665 6.11401C26.5423 8.48979 27.877 11.712 27.877 15.0719C27.877 18.4318 26.5423 21.654 24.1665 24.0298C21.7908 26.4056 18.5685 27.7403 15.2086 27.7403ZM15.2086 29.5501C19.0485 29.5501 22.7311 28.0247 25.4462 25.3095C28.1614 22.5943 29.6868 18.9118 29.6868 15.0719C29.6868 11.2321 28.1614 7.54949 25.4462 4.83431C22.7311 2.11912 19.0485 0.59375 15.2086 0.59375C11.3688 0.59375 7.68621 2.11912 4.97102 4.83431C2.25584 7.54949 0.730469 11.2321 0.730469 15.0719C0.730469 18.9118 2.25584 22.5943 4.97102 25.3095C7.68621 28.0247 11.3688 29.5501 15.2086 29.5501Z" fill="black"/>
<path d="M16.8918 12.5163L12.7474 13.0357L12.599 13.7234L13.4134 13.8736C13.9455 14.0003 14.0505 14.1922 13.9346 14.7224L12.599 20.9987C12.2479 22.6221 12.789 23.3858 14.0613 23.3858C15.0476 23.3858 16.1932 22.9297 16.7126 22.3035L16.8719 21.5507C16.5099 21.8692 15.9815 21.9959 15.6304 21.9959C15.1327 21.9959 14.9517 21.6466 15.0802 21.0313L16.8918 12.5163ZM17.0185 8.7375C17.0185 9.21749 16.8278 9.67781 16.4884 10.0172C16.149 10.3566 15.6887 10.5473 15.2087 10.5473C14.7287 10.5473 14.2684 10.3566 13.929 10.0172C13.5896 9.67781 13.3989 9.21749 13.3989 8.7375C13.3989 8.25752 13.5896 7.7972 13.929 7.4578C14.2684 7.11841 14.7287 6.92773 15.2087 6.92773C15.6887 6.92773 16.149 7.11841 16.4884 7.4578C16.8278 7.7972 17.0185 8.25752 17.0185 8.7375Z" fill="black"/>
</g>
<defs>
<clipPath id="clip0_31_2552">
<rect width="28.9563" height="28.9563" fill="white" transform="translate(0.730469 0.59375)"/>
</clipPath>
</defs>
</svg>
