<svg width="23" height="23" viewBox="0 0 23 23" fill="none" xmlns="http://www.w3.org/2000/svg">
<path d="M18.7505 20.7095H18.6322C4.95449 19.923 3.01247 8.3822 2.741 4.86011C2.71913 4.58626 2.75151 4.31079 2.83628 4.04948C2.92105 3.78817 3.05655 3.54615 3.23501 3.33729C3.41348 3.12844 3.6314 2.95685 3.8763 2.83236C4.12119 2.70787 4.38824 2.63292 4.66215 2.61182H8.49747C8.77628 2.61155 9.04875 2.695 9.27959 2.85138C9.51042 3.00775 9.68899 3.22983 9.79215 3.48886L10.8502 6.09214C10.952 6.3452 10.9773 6.6226 10.9229 6.8899C10.8684 7.1572 10.7366 7.40261 10.5439 7.59565L9.06128 9.09219C9.29287 10.4083 9.92314 11.6215 10.8668 12.5676C11.8105 13.5138 13.022 14.1472 14.3375 14.3823L15.8479 12.8857C16.0439 12.6951 16.2916 12.5664 16.5602 12.5157C16.8288 12.4649 17.1064 12.4944 17.3584 12.6004L19.9825 13.6514C20.2377 13.7578 20.4553 13.9378 20.6078 14.1684C20.7603 14.3989 20.8407 14.6697 20.8387 14.9461V18.6213C20.8387 19.1751 20.6187 19.7063 20.2271 20.0979C19.8355 20.4895 19.3043 20.7095 18.7505 20.7095ZM4.8292 4.00395C4.64459 4.00395 4.46755 4.07728 4.33701 4.20782C4.20647 4.33836 4.13314 4.51541 4.13314 4.70001V4.7557C4.45333 8.87641 6.50672 18.6213 18.7087 19.3174C18.8002 19.323 18.8919 19.3106 18.9785 19.2807C19.0651 19.2509 19.145 19.2042 19.2135 19.1434C19.2821 19.0826 19.3379 19.0089 19.3779 18.9265C19.4179 18.8441 19.4413 18.7546 19.4466 18.6631V14.9461L16.8224 13.895L14.8247 15.8788L14.4906 15.8371C8.43482 15.0783 7.61346 9.02258 7.61346 8.95993L7.5717 8.62582L9.54853 6.62812L8.50443 4.00395H4.8292Z" fill="black" fill-opacity="0.26"/>
</svg>
