<svg width="23" height="24" viewBox="0 0 23 24" fill="none" xmlns="http://www.w3.org/2000/svg">
<g clip-path="url(#clip0_38_6396)">
<path d="M20.4514 4.57031H3.1271C2.79891 4.57031 2.48416 4.70069 2.25209 4.93275C2.02002 5.16482 1.88965 5.47957 1.88965 5.80776V18.1823C1.88965 18.5105 2.02002 18.8252 2.25209 19.0573C2.48416 19.2893 2.79891 19.4197 3.1271 19.4197H20.4514C20.7796 19.4197 21.0943 19.2893 21.3264 19.0573C21.5585 18.8252 21.6888 18.5105 21.6888 18.1823V5.80776C21.6888 5.47957 21.5585 5.16482 21.3264 4.93275C21.0943 4.70069 20.7796 4.57031 20.4514 4.57031ZM19.4986 18.1823H4.15418L8.48526 13.7027L7.59429 12.8427L3.1271 17.4645V6.74822L10.8178 14.4019C11.0497 14.6323 11.3633 14.7617 11.6903 14.7617C12.0172 14.7617 12.3308 14.6323 12.5627 14.4019L20.4514 6.55642V17.3841L15.8976 12.8303L15.0252 13.7027L19.4986 18.1823ZM3.93763 5.80776H19.4491L11.6903 13.5233L3.93763 5.80776Z" fill="black" fill-opacity="0.26"/>
</g>
<defs>
<clipPath id="clip0_38_6396">
<rect width="22.2741" height="22.2741" fill="white" transform="translate(0.652344 0.858398)"/>
</clipPath>
</defs>
</svg>
