<svg width="20" height="12" viewBox="0 0 20 12" fill="none" xmlns="http://www.w3.org/2000/svg">
<path d="M10.3468 11.8381H7.06854V7.01215H3.27828V11.8381H0V0H3.27828V4.38866H7.06854V0H10.3468V11.8381Z" fill="white"/>
<path d="M20 9.02024C20 10.0027 19.6587 10.7449 18.9761 11.247C18.2934 11.749 17.3135 12 16.0363 12C15.3427 12 14.7399 11.9622 14.2279 11.8866C13.7159 11.8165 13.193 11.6842 12.659 11.4899V8.95547C13.1599 9.17139 13.7077 9.34953 14.3022 9.48988C14.9023 9.63023 15.4363 9.70041 15.9042 9.70041C16.6034 9.70041 16.9529 9.54386 16.9529 9.23077C16.9529 9.06883 16.8538 8.92578 16.6557 8.80162C16.463 8.67206 15.896 8.42375 14.9546 8.05668C14.0958 7.7112 13.4957 7.31984 13.1544 6.88259C12.8131 6.43995 12.6424 5.88124 12.6424 5.20648C12.6424 4.35358 12.9783 3.68961 13.6499 3.21457C14.3215 2.73954 15.2711 2.50202 16.4988 2.50202C17.1153 2.50202 17.6934 2.5695 18.2329 2.70445C18.7779 2.83401 19.3421 3.02564 19.9257 3.27935L19.0504 5.31984C18.621 5.1309 18.1668 4.97166 17.6879 4.84211C17.2089 4.70715 16.8181 4.63968 16.5153 4.63968C15.9868 4.63968 15.7225 4.76653 15.7225 5.02024C15.7225 5.17679 15.8134 5.31174 15.995 5.4251C16.1822 5.53306 16.7162 5.75709 17.597 6.09717C18.2521 6.36167 18.7393 6.62078 19.0586 6.87449C19.3834 7.12821 19.6201 7.4278 19.7688 7.77328C19.9229 8.11336 20 8.52902 20 9.02024Z" fill="white"/>
</svg>
