<svg width="83" height="71" viewBox="0 0 83 71" fill="none" xmlns="http://www.w3.org/2000/svg">
<path d="M83 41.5C83 34.6753 81.3169 27.9559 78.0997 21.937C74.8826 15.9182 70.2307 10.7856 64.5562 6.99401C58.8816 3.2024 52.3596 0.868773 45.5677 0.199834C38.7759 -0.469105 31.9239 0.547293 25.6186 3.159C19.3134 5.7707 13.7496 9.8971 9.42007 15.1727C5.09051 20.4483 2.12885 26.7102 0.797411 33.4037C-0.534025 40.0973 -0.194135 47.016 1.78698 53.5468C3.76809 60.0777 7.32926 66.0191 12.1551 70.8449L15.4891 67.5109C11.2115 63.2334 8.05495 57.967 6.29892 52.1781C4.5429 46.3893 4.24162 40.2567 5.42179 34.3236C6.60195 28.3905 9.22713 22.84 13.0648 18.1638C16.9024 13.4876 21.8341 9.83005 27.423 7.51507C33.0118 5.20009 39.0854 4.29916 45.1056 4.8921C51.1258 5.48504 56.9068 7.55354 61.9367 10.9144C66.9665 14.2752 71.0899 18.8246 73.9415 24.1597C76.7931 29.4947 78.285 35.4507 78.285 41.5H83Z" fill="#71C07B"/>
</svg>
