<svg width="24" height="23" viewBox="0 0 24 23" fill="none" xmlns="http://www.w3.org/2000/svg">
<path d="M11.9413 2.90908L14.8477 7.58374C15.1393 8.05263 15.6024 8.38911 16.1384 8.52148L16.4769 7.15088L16.1384 8.52148L21.4824 9.84116L17.9347 14.0499L19.0142 14.9598L17.9347 14.0499C17.5789 14.4721 17.402 15.0165 17.4417 15.5672L17.838 21.0575L12.739 18.984C12.2275 18.776 11.655 18.776 11.1436 18.984L6.0445 21.0575L6.4408 15.5672C6.48055 15.0165 6.30365 14.4721 5.9478 14.0499L2.4001 9.84116L7.7441 8.52148C8.28013 8.38911 8.74327 8.05262 9.0348 7.58374L11.9413 2.90908Z" stroke="#F87C56" stroke-width="2.82354"/>
</svg>
