<svg width="18" height="17" viewBox="0 0 18 17" fill="none" xmlns="http://www.w3.org/2000/svg">
<path d="M8.43497 13.2802L8.79984 14.1775L8.43497 13.2802L4.82313 14.749L5.10385 10.86C5.132 10.47 5.0067 10.0843 4.75464 9.78529L2.24169 6.80409L6.02701 5.86932C6.4067 5.77556 6.73475 5.53722 6.94125 5.20509L9 1.89389L11.0587 5.20509L11.908 4.67708L11.0587 5.20509C11.2652 5.53722 11.5933 5.77556 11.973 5.86932L15.7583 6.80409L13.2454 9.78529L14.01 10.4298L13.2454 9.7853C12.9933 10.0843 12.868 10.47 12.8962 10.86L13.1769 14.749L9.56503 13.2802L9.18834 14.2066L9.56503 13.2802C9.20274 13.1329 8.79725 13.1329 8.43497 13.2802ZM1.46096 6.99689L1.46157 6.99674C1.46137 6.99679 1.46116 6.99684 1.46096 6.99689L1.34109 6.51147L1.46096 6.99689Z" stroke="#F87C56" stroke-width="2"/>
</svg>
