<svg width="24" height="23" viewBox="0 0 24 23" fill="none" xmlns="http://www.w3.org/2000/svg">
<path d="M11.3985 1.21749C11.6756 0.77173 12.3244 0.77173 12.6015 1.21749L16.1196 6.87586C16.2172 7.0327 16.3721 7.14525 16.5514 7.18952L23.0199 8.78691C23.5295 8.91275 23.73 9.52977 23.3917 9.93111L19.0974 15.0255C18.9784 15.1668 18.9192 15.3489 18.9325 15.5331L19.4122 22.1787C19.45 22.7022 18.9252 23.0835 18.4389 22.8858L12.2668 20.376C12.0957 20.3064 11.9043 20.3064 11.7332 20.376L5.56107 22.8858C5.07484 23.0835 4.54997 22.7022 4.58776 22.1787L5.06746 15.5331C5.08076 15.3489 5.02158 15.1668 4.90256 15.0255L0.608284 9.93111C0.269983 9.52977 0.470465 8.91275 0.980058 8.78691L7.44863 7.18952C7.62793 7.14525 7.78284 7.0327 7.88036 6.87586L11.3985 1.21749Z" fill="#F87C56"/>
</svg>
