<svg width="11" height="11" viewBox="0 0 11 11" fill="none" xmlns="http://www.w3.org/2000/svg">
<path d="M5.48162 0.513096C5.60538 0.314037 5.89509 0.314037 6.01886 0.513096L7.58989 3.03988C7.63344 3.10991 7.70262 3.16017 7.78268 3.17995L10.6713 3.89327C10.8988 3.94946 10.9884 4.225 10.8373 4.40422L8.91965 6.67917C8.8665 6.74223 8.84007 6.82355 8.84601 6.90581L9.06022 9.87345C9.0771 10.1072 8.84272 10.2775 8.62558 10.1892L5.86939 9.06845C5.79299 9.03739 5.70748 9.03739 5.63109 9.06845L2.87489 10.1892C2.65776 10.2775 2.42338 10.1072 2.44025 9.87345L2.65447 6.90581C2.6604 6.82355 2.63398 6.74223 2.58083 6.67917L0.663192 4.40422C0.512121 4.225 0.601648 3.94946 0.82921 3.89327L3.7178 3.17995C3.79786 3.16017 3.86704 3.10991 3.91058 3.03988L5.48162 0.513096Z" fill="url(#paint0_linear_180_3046)"/>
<defs>
<linearGradient id="paint0_linear_180_3046" x1="5.75024" y1="0.0810547" x2="5.75024" y2="11.4682" gradientUnits="userSpaceOnUse">
<stop stop-color="#605DEC"/>
<stop offset="1" stop-color="#2A26D9"/>
</linearGradient>
</defs>
</svg>
