<svg width="11" height="11" viewBox="0 0 11 11" fill="none" xmlns="http://www.w3.org/2000/svg">
<path d="M5.29802 0.513096C5.42179 0.314037 5.7115 0.314037 5.83527 0.513096L7.4063 3.03988C7.44984 3.10991 7.51902 3.16017 7.59909 3.17995L10.4877 3.89327C10.7152 3.94946 10.8048 4.225 10.6537 4.40422L8.73606 6.67917C8.6829 6.74223 8.65648 6.82355 8.66242 6.90581L8.87663 9.87345C8.89351 10.1072 8.65912 10.2775 8.44199 10.1892L5.68579 9.06845C5.6094 9.03739 5.52389 9.03739 5.44749 9.06845L2.6913 10.1892C2.47417 10.2775 2.23978 10.1072 2.25666 9.87345L2.47087 6.90581C2.47681 6.82355 2.45039 6.74223 2.39723 6.67917L0.479598 4.40422C0.328527 4.225 0.418054 3.94946 0.645616 3.89327L3.5342 3.17995C3.61427 3.16017 3.68344 3.10991 3.72699 3.03988L5.29802 0.513096Z" fill="url(#paint0_linear_180_2414)"/>
<defs>
<linearGradient id="paint0_linear_180_2414" x1="5.56664" y1="0.0810547" x2="5.56664" y2="11.4682" gradientUnits="userSpaceOnUse">
<stop stop-color="#605DEC"/>
<stop offset="1" stop-color="#2A26D9"/>
</linearGradient>
</defs>
</svg>
