<svg width="11" height="11" viewBox="0 0 11 11" fill="none" xmlns="http://www.w3.org/2000/svg">
<path d="M5.48162 0.512119C5.60538 0.31306 5.89509 0.31306 6.01886 0.512119L7.58989 3.0389C7.63344 3.10894 7.70262 3.1592 7.78268 3.17897L10.6713 3.89229C10.8988 3.94849 10.9884 4.22402 10.8373 4.40324L8.91965 6.6782C8.8665 6.74125 8.84007 6.82258 8.84601 6.90483L9.06022 9.87247C9.0771 10.1063 8.84272 10.2766 8.62558 10.1883L5.86939 9.06748C5.79299 9.03641 5.70748 9.03641 5.63109 9.06748L2.87489 10.1883C2.65776 10.2766 2.42338 10.1063 2.44025 9.87247L2.65447 6.90483C2.6604 6.82258 2.63398 6.74125 2.58083 6.6782L0.663192 4.40324C0.512121 4.22402 0.601648 3.94849 0.82921 3.89229L3.7178 3.17897C3.79786 3.1592 3.86704 3.10894 3.91058 3.0389L5.48162 0.512119Z" fill="url(#paint0_linear_180_2433)"/>
<defs>
<linearGradient id="paint0_linear_180_2433" x1="5.75024" y1="0.0800781" x2="5.75024" y2="11.4673" gradientUnits="userSpaceOnUse">
<stop stop-color="#605DEC"/>
<stop offset="1" stop-color="#2A26D9"/>
</linearGradient>
</defs>
</svg>
