<svg width="11" height="11" viewBox="0 0 11 11" fill="none" xmlns="http://www.w3.org/2000/svg">
<path d="M5.11443 0.512119C5.23819 0.31306 5.52791 0.31306 5.65167 0.512119L7.2227 3.0389C7.26625 3.10894 7.33543 3.1592 7.41549 3.17897L10.3041 3.89229C10.5316 3.94849 10.6212 4.22402 10.4701 4.40324L8.55246 6.6782C8.49931 6.74125 8.47289 6.82258 8.47882 6.90483L8.69304 9.87247C8.70991 10.1063 8.47553 10.2766 8.2584 10.1883L5.5022 9.06748C5.4258 9.03641 5.3403 9.03641 5.2639 9.06748L2.50771 10.1883C2.29057 10.2766 2.05619 10.1063 2.07307 9.87247L2.28728 6.90483C2.29322 6.82258 2.26679 6.74125 2.21364 6.6782L0.296004 4.40324C0.144933 4.22402 0.23446 3.94849 0.462022 3.89229L3.35061 3.17897C3.43067 3.1592 3.49985 3.10894 3.5434 3.0389L5.11443 0.512119Z" fill="url(#paint0_linear_180_2429)"/>
<defs>
<linearGradient id="paint0_linear_180_2429" x1="5.38305" y1="0.0800781" x2="5.38305" y2="11.4673" gradientUnits="userSpaceOnUse">
<stop stop-color="#605DEC"/>
<stop offset="1" stop-color="#2A26D9"/>
</linearGradient>
</defs>
</svg>
