<svg width="24" height="23" viewBox="0 0 24 23" fill="none" xmlns="http://www.w3.org/2000/svg">
<path fill-rule="evenodd" clip-rule="evenodd" d="M23.854 11.5C23.854 17.8512 18.7257 23 12.3997 23C6.0736 23 0.945312 17.8512 0.945312 11.5C0.945312 5.14872 6.0736 0 12.3997 0C18.7257 0 23.854 5.14872 23.854 11.5ZM15.836 8.05C15.836 9.95543 14.2976 11.5 12.3997 11.5C10.5018 11.5 8.96337 9.95543 8.96337 8.05C8.96337 6.14462 10.5018 4.6 12.3997 4.6C14.2976 4.6 15.836 6.14462 15.836 8.05ZM12.3997 21.275C14.4431 21.275 16.3396 20.643 17.9057 19.5629C18.5974 19.0859 18.8929 18.1771 18.4909 17.4377C17.6572 15.9048 15.9393 14.95 12.3996 14.95C8.85992 14.95 7.14209 15.9047 6.30841 17.4377C5.90626 18.1771 6.20184 19.0857 6.89352 19.5628C8.45958 20.6428 10.3561 21.275 12.3997 21.275Z" fill="#F87C56"/>
</svg>
