<svg width="23" height="21" viewBox="0 0 23 21" fill="none" xmlns="http://www.w3.org/2000/svg">
<path fill-rule="evenodd" clip-rule="evenodd" d="M0 1.09985C0 0.492426 0.39606 0 0.884615 0H22.1154C22.6039 0 23 0.492426 23 1.09985C23 1.70728 22.6039 2.19971 22.1154 2.19971H0.884615C0.39606 2.19971 0 1.70728 0 1.09985ZM0 6.96573C0 6.35831 0.39606 5.86588 0.884615 5.86588H22.1154C22.6039 5.86588 23 6.35831 23 6.96573C23 7.57314 22.6039 8.06559 22.1154 8.06559H0.884615C0.39606 8.06559 0 7.57314 0 6.96573ZM21.0479 10.4746C22.2691 11.022 23 12.5159 23 14.351C23 15.6673 22.3817 16.8578 21.7549 17.7553C21.1034 18.6883 20.3018 19.5023 19.667 20.0832C19.6379 20.1097 19.6085 20.1368 19.5789 20.1641C19.1545 20.5555 18.6726 21 17.9872 21C17.3018 21 16.8198 20.5555 16.3955 20.1641C16.3659 20.1368 16.3365 20.1097 16.3074 20.0832C15.6726 19.5023 14.871 18.6883 14.2194 17.7553C13.5926 16.8578 12.9744 15.6673 12.9744 14.351C12.9744 12.5159 13.7053 11.022 14.9264 10.4746C15.9118 10.0329 17.0146 10.2977 17.9872 11.1506C18.9598 10.2977 20.0626 10.0329 21.0479 10.4746ZM20.4478 12.5439C20.0503 12.3657 19.3633 12.4404 18.6079 13.3654C18.2635 13.787 17.7108 13.787 17.3664 13.3654C16.6111 12.4404 15.924 12.3657 15.5265 12.5439C15.148 12.7136 14.7436 13.2416 14.7436 14.351C14.7436 14.8455 15.0011 15.5195 15.5553 16.313C16.0848 17.0712 16.7696 17.7749 17.356 18.3114C17.6312 18.5632 17.7656 18.6828 17.873 18.7542C17.9425 18.8004 17.9621 18.8003 17.9853 18.8003H17.9872H17.9891C18.0123 18.8003 18.0319 18.8004 18.1014 18.7542C18.2089 18.6828 18.3433 18.5632 18.6183 18.3114C19.2048 17.7749 19.8896 17.0712 20.419 16.313C20.9733 15.5195 21.2308 14.8455 21.2308 14.351C21.2308 13.2416 20.8263 12.7136 20.4478 12.5439ZM0 12.8316C0 12.2242 0.39606 11.7318 0.884615 11.7318H9.14103C9.62957 11.7318 10.0256 12.2242 10.0256 12.8316C10.0256 13.439 9.62957 13.9315 9.14103 13.9315H0.884615C0.39606 13.9315 0 13.439 0 12.8316ZM0 18.6975C0 18.0901 0.39606 17.5976 0.884615 17.5976H9.14103C9.62957 17.5976 10.0256 18.0901 10.0256 18.6975C10.0256 19.3049 9.62957 19.7973 9.14103 19.7973H0.884615C0.39606 19.7973 0 19.3049 0 18.6975Z" fill="#F87C56"/>
</svg>
