<svg width="17" height="17" viewBox="0 0 17 17" fill="none" xmlns="http://www.w3.org/2000/svg">
<g clip-path="url(#clip0_29_6986)">
<path d="M8.5 17C3.825 17 0 13.175 0 8.5C0 3.825 3.825 0 8.5 0C13.175 0 17 3.825 17 8.5C17 13.175 13.175 17 8.5 17ZM8.5 1.41667C4.60417 1.41667 1.41667 4.60417 1.41667 8.5C1.41667 12.3958 4.60417 15.5833 8.5 15.5833C12.3958 15.5833 15.5833 12.3958 15.5833 8.5C15.5833 4.60417 12.3958 1.41667 8.5 1.41667Z" fill="black"/>
<path d="M7.79134 11.3327C7.57884 11.3327 7.43717 11.2618 7.29551 11.1202L5.17051 8.99518C4.88717 8.71185 4.88717 8.28685 5.17051 8.00352C5.45384 7.72018 5.87884 7.72018 6.16217 8.00352L8.28717 10.1285C8.57051 10.4118 8.57051 10.8368 8.28717 11.1202C8.14551 11.2618 8.00384 11.3327 7.79134 11.3327Z" fill="black"/>
<path d="M7.79134 11.3327C7.57884 11.3327 7.43717 11.2618 7.29551 11.1202C7.01217 10.8368 7.01217 10.4118 7.29551 10.1285L11.5455 5.87852C11.8288 5.59518 12.2538 5.59518 12.5372 5.87852C12.8205 6.16185 12.8205 6.58685 12.5372 6.87018L8.28717 11.1202C8.14551 11.2618 8.00384 11.3327 7.79134 11.3327Z" fill="black"/>
</g>
<defs>
<clipPath id="clip0_29_6986">
<rect width="17" height="17" fill="white"/>
</clipPath>
</defs>
</svg>
