<svg width="23" height="23" viewBox="0 0 23 23" fill="none" xmlns="http://www.w3.org/2000/svg">
<path d="M10.7449 11.177C10.7449 11.454 10.8549 11.7195 11.0507 11.9153C11.2465 12.1111 11.5121 12.2211 11.789 12.2211C12.0659 12.2211 12.3315 12.1111 12.5273 11.9153C12.7231 11.7195 12.8331 11.454 12.8331 11.177C12.8331 10.9001 12.7231 10.6346 12.5273 10.4388C12.3315 10.243 12.0659 10.1329 11.789 10.1329C11.5121 10.1329 11.2465 10.243 11.0507 10.4388C10.8549 10.6346 10.7449 10.9001 10.7449 11.177ZM15.0953 11.177C15.0953 11.454 15.2053 11.7195 15.4011 11.9153C15.5969 12.1111 15.8625 12.2211 16.1394 12.2211C16.4163 12.2211 16.6819 12.1111 16.8777 11.9153C17.0735 11.7195 17.1835 11.454 17.1835 11.177C17.1835 10.9001 17.0735 10.6346 16.8777 10.4388C16.6819 10.243 16.4163 10.1329 16.1394 10.1329C15.8625 10.1329 15.5969 10.243 15.4011 10.4388C15.2053 10.6346 15.0953 10.9001 15.0953 11.177ZM6.39448 11.177C6.39448 11.454 6.50448 11.7195 6.70029 11.9153C6.89609 12.1111 7.16166 12.2211 7.43858 12.2211C7.71549 12.2211 7.98106 12.1111 8.17687 11.9153C8.37267 11.7195 8.48267 11.454 8.48267 11.177C8.48267 10.9001 8.37267 10.6346 8.17687 10.4388C7.98106 10.243 7.71549 10.1329 7.43858 10.1329C7.16166 10.1329 6.89609 10.243 6.70029 10.4388C6.50448 10.6346 6.39448 10.9001 6.39448 11.177ZM20.7769 7.40089C20.2853 6.23281 19.5806 5.18436 18.6822 4.28382C17.7901 3.3885 16.7311 2.67683 15.5651 2.1891C14.3688 1.68663 13.0985 1.43213 11.789 1.43213H11.7455C10.4273 1.43865 9.15046 1.69968 7.94975 2.21303C6.79375 2.70576 5.74467 3.41869 4.86096 4.3121C3.9713 5.21046 3.27306 6.25456 2.79016 7.41829C2.28987 8.62336 2.03754 9.90455 2.04407 11.2227C2.05145 12.7333 2.40883 14.2217 3.08817 15.571V18.8773C3.08817 19.1426 3.19359 19.3972 3.38123 19.5848C3.56888 19.7724 3.82339 19.8779 4.08876 19.8779H7.39725C8.74651 20.5572 10.2349 20.9146 11.7455 20.922H11.7912C13.0941 20.922 14.3579 20.6696 15.5477 20.1759C16.7078 19.694 17.7629 18.9906 18.6539 18.1051C19.5523 17.2154 20.2592 16.1757 20.753 15.0163C21.2664 13.8156 21.5274 12.5387 21.5339 11.2205C21.5404 9.89585 21.2838 8.6103 20.7769 7.40089ZM17.4902 16.9283C15.9654 18.4379 13.9424 19.2688 11.789 19.2688H11.752C10.4404 19.2623 9.13741 18.936 7.98673 18.3226L7.80401 18.2247H4.74132V15.162L4.64344 14.9793C4.03003 13.8286 3.70375 12.5257 3.69722 11.214C3.68852 9.04535 4.51728 7.00935 6.03774 5.47583C7.55604 3.94231 9.5855 3.09399 11.7542 3.08528H11.7912C12.8788 3.08528 13.9337 3.29628 14.9278 3.71392C15.8979 4.12068 16.768 4.70581 17.5163 5.45408C18.2624 6.20018 18.8497 7.07243 19.2565 8.04258C19.6785 9.04752 19.8894 10.1134 19.8851 11.214C19.872 13.3805 19.0215 15.41 17.4902 16.9283Z" fill="black" fill-opacity="0.26"/>
</svg>
