<svg width="23" height="23" viewBox="0 0 23 23" fill="none" xmlns="http://www.w3.org/2000/svg">
<g clip-path="url(#clip0_38_6427)">
<path d="M9.62469 16.4596V9.03394H8.74347C8.11234 9.37038 7.50237 9.74509 6.91699 10.156V11.1235C7.43904 10.7658 8.26597 10.2604 8.66829 10.0418H8.685V16.4596H9.62469ZM11.2785 14.6428C11.344 15.5338 12.1055 16.6002 13.6493 16.6002C15.4006 16.6002 16.4336 15.1162 16.4336 12.6034C16.4336 9.91098 15.3463 8.88916 13.7148 8.88916C12.4257 8.88916 11.2131 9.82467 11.2131 11.4075C11.2131 13.0224 12.3602 13.8716 13.5463 13.8716C14.5848 13.8716 15.2586 13.3482 15.4716 12.7718H15.5092C15.5037 14.6039 14.8675 15.7844 13.6925 15.7844C12.7681 15.7844 12.2892 15.1579 12.2308 14.6428H11.2785ZM15.3895 11.4173C15.3895 12.3862 14.6113 13.06 13.7412 13.06C12.9045 13.06 12.1486 12.5268 12.1486 11.3894C12.1486 10.2437 12.9588 9.70495 13.7746 9.70495C14.6558 9.70495 15.3895 10.259 15.3895 11.4173Z" fill="black" fill-opacity="0.26"/>
<path d="M5.5248 0.188477C5.70941 0.188477 5.88646 0.261812 6.01699 0.392349C6.14753 0.522887 6.22087 0.699934 6.22087 0.884542V1.58061H17.3579V0.884542C17.3579 0.699934 17.4312 0.522887 17.5618 0.392349C17.6923 0.261812 17.8694 0.188477 18.054 0.188477C18.2386 0.188477 18.4156 0.261812 18.5462 0.392349C18.6767 0.522887 18.75 0.699934 18.75 0.884542V1.58061H20.1422C20.8806 1.58061 21.5888 1.87395 22.1109 2.3961C22.6331 2.91825 22.9264 3.62644 22.9264 4.36487V19.6783C22.9264 20.4167 22.6331 21.1249 22.1109 21.6471C21.5888 22.1692 20.8806 22.4626 20.1422 22.4626H3.43661C2.69817 22.4626 1.98999 22.1692 1.46784 21.6471C0.945685 21.1249 0.652344 20.4167 0.652344 19.6783V4.36487C0.652344 3.62644 0.945685 2.91825 1.46784 2.3961C1.98999 1.87395 2.69817 1.58061 3.43661 1.58061H4.82874V0.884542C4.82874 0.699934 4.90207 0.522887 5.03261 0.392349C5.16315 0.261812 5.34019 0.188477 5.5248 0.188477V0.188477ZM2.04447 5.757V19.6783C2.04447 20.0475 2.19115 20.4016 2.45222 20.6627C2.7133 20.9238 3.06739 21.0704 3.43661 21.0704H20.1422C20.5114 21.0704 20.8655 20.9238 21.1266 20.6627C21.3876 20.4016 21.5343 20.0475 21.5343 19.6783V5.757H2.04447Z" fill="black" fill-opacity="0.26"/>
</g>
<defs>
<clipPath id="clip0_38_6427">
<rect width="22.2741" height="22.2741" fill="white" transform="translate(0.652344 0.188477)"/>
</clipPath>
</defs>
</svg>
