<svg width="23" height="24" viewBox="0 0 23 24" fill="none" xmlns="http://www.w3.org/2000/svg">
<g clip-path="url(#clip0_38_6423)">
<path d="M22.9253 12.6814C22.9084 12.1375 22.6787 11.6218 22.2855 11.2455L14.2069 3.37544C14.0857 3.25457 13.9418 3.15879 13.7836 3.09361C13.6253 3.02843 13.4557 2.99513 13.2846 2.99561H11.8428L21.316 12.2446L21.32 12.2484C21.452 12.3736 21.5295 12.5458 21.5355 12.7277C21.5415 12.9095 21.4757 13.0865 21.3522 13.2202L14.5482 20.7618L15.5032 21.6909L22.3803 14.1588C22.7488 13.757 22.9445 13.2263 22.9253 12.6814Z" fill="black" fill-opacity="0.26"/>
<path d="M19.2245 13.1718C19.2909 12.989 19.3047 12.7913 19.2645 12.6011C19.2243 12.4108 19.1316 12.2357 18.9969 12.0954C18.9923 12.0906 18.9882 12.0854 18.9836 12.0806L10.4108 3.36401L10.4068 3.35992C10.2778 3.23024 10.1244 3.12742 9.95539 3.05743C9.78642 2.98744 9.60524 2.95165 9.42234 2.95215H3.27125C2.76152 2.95273 2.27283 3.15548 1.91239 3.51591C1.55195 3.87635 1.34921 4.36504 1.34863 4.87477V11.0132C1.34894 11.2028 1.38785 11.3904 1.46298 11.5645C1.5381 11.7386 1.64788 11.8956 1.78563 12.026L10.9354 20.7355L10.9388 20.7387C11.1317 20.921 11.3872 21.0223 11.6526 21.0218C11.6656 21.0218 11.6786 21.0216 11.6918 21.0211C11.7915 21.0175 11.8903 20.9996 11.985 20.9681C12.1525 20.9123 12.3029 20.8147 12.4221 20.6846L19.0106 13.5229C19.1044 13.4212 19.1771 13.3018 19.2245 13.1718ZM11.6374 19.4816L2.74411 11.0162L2.74076 11.0131V4.87477C2.74092 4.73413 2.79687 4.59929 2.89632 4.49984C2.99577 4.40039 3.13061 4.34445 3.27125 4.34428H9.4223L17.762 12.824L11.6374 19.4816Z" fill="black" fill-opacity="0.26"/>
<path d="M6.74268 5.72559C6.29526 5.72559 5.85788 5.85826 5.48586 6.10684C5.11385 6.35541 4.82389 6.70872 4.65267 7.12209C4.48145 7.53545 4.43665 7.99031 4.52394 8.42913C4.61123 8.86796 4.82668 9.27105 5.14306 9.58742C5.45943 9.9038 5.86252 10.1193 6.30135 10.2065C6.74017 10.2938 7.19503 10.249 7.60839 10.0778C8.02176 9.90659 8.37507 9.61664 8.62364 9.24462C8.87222 8.8726 9.0049 8.43522 9.0049 7.9878C9.00422 7.38803 8.76566 6.81302 8.34156 6.38892C7.91746 5.96482 7.34245 5.72627 6.74268 5.72559ZM6.74268 8.85788C6.5706 8.85788 6.40238 8.80685 6.25929 8.71125C6.11621 8.61564 6.00469 8.47975 5.93883 8.32077C5.87298 8.16178 5.85575 7.98683 5.88932 7.81805C5.92289 7.64927 6.00576 7.49424 6.12744 7.37256C6.24912 7.25087 6.40416 7.16801 6.57294 7.13444C6.74172 7.10086 6.91666 7.11809 7.07565 7.18395C7.23464 7.2498 7.37052 7.36132 7.46613 7.50441C7.56174 7.64749 7.61276 7.81571 7.61276 7.9878C7.6125 8.21848 7.52075 8.43963 7.35763 8.60275C7.19452 8.76586 6.97336 8.85762 6.74268 8.85788Z" fill="black" fill-opacity="0.26"/>
</g>
<defs>
<clipPath id="clip0_38_6423">
<rect width="22.2741" height="22.2741" fill="white" transform="translate(0.652344 0.853027)"/>
</clipPath>
</defs>
</svg>
