<svg width="23" height="23" viewBox="0 0 23 23" fill="none" xmlns="http://www.w3.org/2000/svg">
<g clip-path="url(#clip0_38_6418)">
<path d="M20.4514 3.90527H3.1271C2.79891 3.90527 2.48416 4.03565 2.25209 4.26771C2.02002 4.49978 1.88965 4.81453 1.88965 5.14272V17.5172C1.88965 17.8454 2.02002 18.1602 2.25209 18.3922C2.48416 18.6243 2.79891 18.7547 3.1271 18.7547H20.4514C20.7796 18.7547 21.0943 18.6243 21.3264 18.3922C21.5585 18.1602 21.6888 17.8454 21.6888 17.5172V5.14272C21.6888 4.81453 21.5585 4.49978 21.3264 4.26771C21.0943 4.03565 20.7796 3.90527 20.4514 3.90527ZM19.4986 17.5172H4.15418L8.48526 13.0377L7.59429 12.1776L3.1271 16.7995V6.08319L10.8178 13.7368C11.0497 13.9673 11.3633 14.0967 11.6903 14.0967C12.0172 14.0967 12.3308 13.9673 12.5627 13.7368L20.4514 5.89138V16.7191L15.8976 12.1653L15.0252 13.0377L19.4986 17.5172ZM3.93763 5.14272H19.4491L11.6903 12.8582L3.93763 5.14272Z" fill="black" fill-opacity="0.26"/>
</g>
<defs>
<clipPath id="clip0_38_6418">
<rect width="22.2741" height="22.2741" fill="white" transform="translate(0.652344 0.193359)"/>
</clipPath>
</defs>
</svg>
