<svg width="23" height="23" viewBox="0 0 23 23" fill="none" xmlns="http://www.w3.org/2000/svg">
<g clip-path="url(#clip0_38_6416)">
<path d="M11.789 9.43796C13.6823 9.43796 15.1969 7.93446 15.1969 6.09684C15.1969 4.25923 13.6823 2.75573 11.789 2.75573C9.89567 2.75573 8.38103 4.25923 8.38103 6.09684C8.38103 7.93446 9.89567 9.43796 11.789 9.43796ZM11.789 11.6654C8.67059 11.6654 6.15362 9.17067 6.15362 6.09684C6.15362 3.02302 8.67059 0.52832 11.789 0.52832C14.9073 0.52832 17.4243 3.02302 17.4243 6.09684C17.4243 9.17067 14.9073 11.6654 11.789 11.6654ZM3.99303 20.575H19.5849V19.0938C19.5849 17.1448 17.0122 15.129 11.789 15.129C6.56569 15.129 3.99303 17.1448 3.99303 19.0938V20.575ZM11.789 12.9016C19.2062 12.9016 21.8123 16.6102 21.8123 19.0938V22.8024H1.76562V19.0938C1.76562 16.6102 4.37169 12.9016 11.789 12.9016Z" fill="black" fill-opacity="0.26"/>
</g>
<defs>
<clipPath id="clip0_38_6416">
<rect width="22.2741" height="22.2741" fill="white" transform="translate(0.652344 0.52832)"/>
</clipPath>
</defs>
</svg>
