<svg width="11" height="11" viewBox="0 0 11 11" fill="none" xmlns="http://www.w3.org/2000/svg">
<path d="M4.93279 0.513096C5.05655 0.314037 5.34627 0.314037 5.47003 0.513096L7.04106 3.03988C7.08461 3.10991 7.15379 3.16017 7.23385 3.17995L10.1224 3.89327C10.35 3.94946 10.4395 4.225 10.2885 4.40422L8.37082 6.67917C8.31767 6.74223 8.29124 6.82355 8.29718 6.90581L8.5114 9.87345C8.52827 10.1072 8.29389 10.2775 8.07675 10.1892L5.32056 9.06845C5.24416 9.03739 5.15866 9.03739 5.08226 9.06845L2.32606 10.1892C2.10893 10.2775 1.87455 10.1072 1.89142 9.87345L2.10564 6.90581C2.11158 6.82355 2.08515 6.74223 2.032 6.67917L0.114364 4.40422C-0.0367072 4.225 0.0528196 3.94946 0.280382 3.89327L3.16897 3.17995C3.24903 3.16017 3.31821 3.10991 3.36176 3.03988L4.93279 0.513096Z" fill="url(#paint0_linear_180_3040)"/>
<defs>
<linearGradient id="paint0_linear_180_3040" x1="5.20141" y1="0.0810547" x2="5.20141" y2="11.4682" gradientUnits="userSpaceOnUse">
<stop stop-color="#605DEC"/>
<stop offset="1" stop-color="#2A26D9"/>
</linearGradient>
</defs>
</svg>
