<svg width="24" height="23" viewBox="0 0 24 23" fill="none" xmlns="http://www.w3.org/2000/svg">
<path d="M11.9415 1.57222L12.5409 1.94493C12.5408 1.94519 12.5406 1.94545 12.5404 1.94571L12.5409 1.94493L11.9415 1.57222ZM11.9415 1.57222L11.342 1.94493C11.3421 1.94514 11.3423 1.94536 11.3424 1.94557L11.342 1.94494L11.9415 1.57222ZM9.03499 7.58374L7.83607 6.8383L9.03499 7.58374L11.9415 2.90908L14.8479 7.58374C15.1395 8.05262 15.6026 8.38911 16.1386 8.52148L21.4826 9.84116L17.9349 14.0499L19.0144 14.9598L17.9349 14.0499C17.5791 14.4721 17.4022 15.0165 17.4419 15.5672L17.8382 21.0575L12.7392 18.984C12.2277 18.776 11.6552 18.776 11.1438 18.984L6.0447 21.0575L6.441 15.5672C6.48075 15.0165 6.30385 14.4721 5.948 14.0499L4.86856 14.9598L5.948 14.0499L2.40029 9.84116L7.7443 8.52148C8.28033 8.38911 8.74346 8.05263 9.03499 7.58374Z" stroke="#F87C56" stroke-width="2.82354"/>
</svg>
