<svg width="11" height="11" viewBox="0 0 11 11" fill="none" xmlns="http://www.w3.org/2000/svg">
<path d="M4.93279 0.512119C5.05655 0.31306 5.34627 0.31306 5.47003 0.512119L7.04106 3.0389C7.08461 3.10894 7.15379 3.1592 7.23385 3.17897L10.1224 3.89229C10.35 3.94849 10.4395 4.22402 10.2885 4.40324L8.37082 6.6782C8.31767 6.74125 8.29124 6.82258 8.29718 6.90483L8.5114 9.87247C8.52827 10.1063 8.29389 10.2766 8.07675 10.1883L5.32056 9.06748C5.24416 9.03641 5.15866 9.03641 5.08226 9.06748L2.32606 10.1883C2.10893 10.2766 1.87455 10.1063 1.89142 9.87247L2.10564 6.90483C2.11158 6.82258 2.08515 6.74125 2.032 6.6782L0.114364 4.40324C-0.0367072 4.22402 0.0528196 3.94849 0.280382 3.89229L3.16897 3.17897C3.24903 3.1592 3.31821 3.10894 3.36176 3.0389L4.93279 0.512119Z" fill="url(#paint0_linear_180_2427)"/>
<defs>
<linearGradient id="paint0_linear_180_2427" x1="5.20141" y1="0.0800781" x2="5.20141" y2="11.4673" gradientUnits="userSpaceOnUse">
<stop stop-color="#605DEC"/>
<stop offset="1" stop-color="#2A26D9"/>
</linearGradient>
</defs>
</svg>
