<svg width="11" height="11" viewBox="0 0 11 11" fill="none" xmlns="http://www.w3.org/2000/svg">
<path d="M5.11443 0.513096C5.23819 0.314037 5.52791 0.314037 5.65167 0.513096L7.2227 3.03988C7.26625 3.10991 7.33543 3.16017 7.41549 3.17995L10.3041 3.89327C10.5316 3.94946 10.6212 4.225 10.4701 4.40422L8.55246 6.67917C8.49931 6.74223 8.47289 6.82355 8.47882 6.90581L8.69304 9.87345C8.70991 10.1072 8.47553 10.2775 8.2584 10.1892L5.5022 9.06845C5.4258 9.03739 5.3403 9.03739 5.2639 9.06845L2.50771 10.1892C2.29057 10.2775 2.05619 10.1072 2.07307 9.87345L2.28728 6.90581C2.29322 6.82355 2.26679 6.74223 2.21364 6.67917L0.296004 4.40422C0.144933 4.225 0.23446 3.94946 0.462022 3.89327L3.35061 3.17995C3.43067 3.16017 3.49985 3.10991 3.5434 3.03988L5.11443 0.513096Z" fill="url(#paint0_linear_180_3042)"/>
<defs>
<linearGradient id="paint0_linear_180_3042" x1="5.38305" y1="0.0810547" x2="5.38305" y2="11.4682" gradientUnits="userSpaceOnUse">
<stop stop-color="#605DEC"/>
<stop offset="1" stop-color="#2A26D9"/>
</linearGradient>
</defs>
</svg>
