<svg width="12" height="11" viewBox="0 0 12 11" fill="none" xmlns="http://www.w3.org/2000/svg">
<path d="M5.66326 0.513096C5.78702 0.314037 6.07674 0.314037 6.2005 0.513096L7.77153 3.03988C7.81508 3.10991 7.88426 3.16017 7.96432 3.17995L10.8529 3.89327C11.0805 3.94946 11.17 4.225 11.0189 4.40422L9.10129 6.67917C9.04814 6.74223 9.02171 6.82355 9.02765 6.90581L9.24186 9.87345C9.25874 10.1072 9.02436 10.2775 8.80722 10.1892L6.05103 9.06845C5.97463 9.03739 5.88912 9.03739 5.81273 9.06845L3.05653 10.1892C2.8394 10.2775 2.60502 10.1072 2.62189 9.87345L2.83611 6.90581C2.84204 6.82355 2.81562 6.74223 2.76247 6.67917L0.844832 4.40422C0.693762 4.225 0.783288 3.94946 1.01085 3.89327L3.89944 3.17995C3.9795 3.16017 4.04868 3.10991 4.09223 3.03988L5.66326 0.513096Z" fill="url(#paint0_linear_180_2418)"/>
<defs>
<linearGradient id="paint0_linear_180_2418" x1="5.93188" y1="0.0810547" x2="5.93188" y2="11.4682" gradientUnits="userSpaceOnUse">
<stop stop-color="#605DEC"/>
<stop offset="1" stop-color="#2A26D9"/>
</linearGradient>
</defs>
</svg>
