<svg width="12" height="11" viewBox="0 0 12 11" fill="none" xmlns="http://www.w3.org/2000/svg">
<path d="M5.66326 0.512119C5.78702 0.31306 6.07674 0.31306 6.2005 0.512119L7.77153 3.0389C7.81508 3.10894 7.88426 3.1592 7.96432 3.17897L10.8529 3.89229C11.0805 3.94849 11.17 4.22402 11.0189 4.40324L9.10129 6.6782C9.04814 6.74125 9.02171 6.82258 9.02765 6.90483L9.24186 9.87247C9.25874 10.1063 9.02436 10.2766 8.80722 10.1883L6.05103 9.06748C5.97463 9.03641 5.88912 9.03641 5.81273 9.06748L3.05653 10.1883C2.8394 10.2766 2.60502 10.1063 2.62189 9.87247L2.83611 6.90483C2.84204 6.82258 2.81562 6.74125 2.76247 6.6782L0.844832 4.40324C0.693762 4.22402 0.783288 3.94849 1.01085 3.89229L3.89944 3.17897C3.9795 3.1592 4.04868 3.10894 4.09223 3.0389L5.66326 0.512119Z" fill="url(#paint0_linear_180_2435)"/>
<defs>
<linearGradient id="paint0_linear_180_2435" x1="5.93188" y1="0.0800781" x2="5.93188" y2="11.4673" gradientUnits="userSpaceOnUse">
<stop stop-color="#605DEC"/>
<stop offset="1" stop-color="#2A26D9"/>
</linearGradient>
</defs>
</svg>
