<svg width="11" height="11" viewBox="0 0 11 11" fill="none" xmlns="http://www.w3.org/2000/svg">
<path d="M5.29802 0.512119C5.42179 0.31306 5.7115 0.31306 5.83527 0.512119L7.4063 3.0389C7.44984 3.10894 7.51902 3.1592 7.59909 3.17897L10.4877 3.89229C10.7152 3.94849 10.8048 4.22402 10.6537 4.40324L8.73606 6.6782C8.6829 6.74125 8.65648 6.82258 8.66242 6.90483L8.87663 9.87247C8.89351 10.1063 8.65912 10.2766 8.44199 10.1883L5.68579 9.06748C5.6094 9.03641 5.52389 9.03641 5.44749 9.06748L2.6913 10.1883C2.47417 10.2766 2.23978 10.1063 2.25666 9.87247L2.47087 6.90483C2.47681 6.82258 2.45039 6.74125 2.39723 6.6782L0.479598 4.40324C0.328527 4.22402 0.418054 3.94849 0.645616 3.89229L3.5342 3.17897C3.61427 3.1592 3.68344 3.10894 3.72699 3.0389L5.29802 0.512119Z" fill="url(#paint0_linear_180_2431)"/>
<defs>
<linearGradient id="paint0_linear_180_2431" x1="5.56664" y1="0.0800781" x2="5.56664" y2="11.4673" gradientUnits="userSpaceOnUse">
<stop stop-color="#605DEC"/>
<stop offset="1" stop-color="#2A26D9"/>
</linearGradient>
</defs>
</svg>
