<svg width="25" height="25" viewBox="0 0 25 25" fill="none" xmlns="http://www.w3.org/2000/svg">
<path d="M1 8.66667H24M18.8889 13.7796L6.11111 13.7778M10.3703 18.8895L6.11111 18.8889M6.11111 1V3.55556M18.8889 1V3.55556M5.08889 24H19.9111C21.3423 24 22.058 24 22.6047 23.7214C23.0855 23.4765 23.4765 23.0855 23.7214 22.6047C24 22.058 24 21.3423 24 19.9111V7.64444C24 6.21319 24 5.49757 23.7214 4.95091C23.4765 4.47005 23.0855 4.0791 22.6047 3.8341C22.058 3.55556 21.3423 3.55556 19.9111 3.55556H5.08889C3.65765 3.55556 2.94202 3.55556 2.39536 3.8341C1.91449 4.0791 1.52354 4.47005 1.27854 4.95091C1 5.49757 1 6.21319 1 7.64444V19.9111C1 21.3423 1 22.058 1.27854 22.6047C1.52354 23.0855 1.91449 23.4765 2.39536 23.7214C2.94202 24 3.65764 24 5.08889 24Z" stroke="#F87C56" stroke-width="2" stroke-linecap="round" stroke-linejoin="round"/>
</svg>
