<svg width="40" height="40" viewBox="0 0 40 40" fill="none" xmlns="http://www.w3.org/2000/svg">
<g clip-path="url(#clip0_29_6910)">
<path d="M20 40C9 40 0 31 0 20C0 9 9 0 20 0C31 0 40 9 40 20C40 31 31 40 20 40ZM20 3.33333C10.8333 3.33333 3.33333 10.8333 3.33333 20C3.33333 29.1667 10.8333 36.6667 20 36.6667C29.1667 36.6667 36.6667 29.1667 36.6667 20C36.6667 10.8333 29.1667 3.33333 20 3.33333Z" fill="black"/>
<path d="M18.3337 26.6673C17.8337 26.6673 17.5003 26.5007 17.167 26.1673L12.167 21.1673C11.5003 20.5007 11.5003 19.5007 12.167 18.834C12.8337 18.1673 13.8337 18.1673 14.5003 18.834L19.5003 23.834C20.167 24.5007 20.167 25.5007 19.5003 26.1673C19.167 26.5007 18.8337 26.6673 18.3337 26.6673Z" fill="black"/>
<path d="M18.3337 26.6673C17.8337 26.6673 17.5003 26.5007 17.167 26.1673C16.5003 25.5007 16.5003 24.5007 17.167 23.834L27.167 13.834C27.8337 13.1673 28.8337 13.1673 29.5003 13.834C30.167 14.5007 30.167 15.5007 29.5003 16.1673L19.5003 26.1673C19.167 26.5007 18.8337 26.6673 18.3337 26.6673Z" fill="black"/>
</g>
<defs>
<clipPath id="clip0_29_6910">
<rect width="40" height="40" fill="white"/>
</clipPath>
</defs>
</svg>
