<svg width="30" height="30" viewBox="0 0 30 30" fill="none" xmlns="http://www.w3.org/2000/svg">
<path fill-rule="evenodd" clip-rule="evenodd" d="M12.5 30C19.4036 30 25 24.4036 25 17.5C25 10.5964 19.4036 5 12.5 5C5.59644 5 0 10.5964 0 17.5C0 24.4036 5.59644 30 12.5 30ZM19.2134 13.5443C19.4451 13.2884 19.4253 12.8931 19.1693 12.6616C18.9134 12.4299 18.5181 12.4497 18.2866 12.7057L10.8006 20.9797L6.68156 17.0479C6.43188 16.8096 6.03625 16.8187 5.79787 17.0684C5.55956 17.3181 5.56875 17.7137 5.81844 17.9521L10.4018 22.3271L10.8661 22.7703L11.2968 22.2943L19.2134 13.5443Z" fill="#F87C56"/>
</svg>
